<?xml version="1.0" encoding="UTF-8" standalone="no"?>
<svg
   xmlns:dc="http://purl.org/dc/elements/1.1/"
   xmlns:cc="http://creativecommons.org/ns#"
   xmlns:rdf="http://www.w3.org/1999/02/22-rdf-syntax-ns#"
   xmlns:svg="http://www.w3.org/2000/svg"
   xmlns="http://www.w3.org/2000/svg"
   xmlns:sodipodi="http://sodipodi.sourceforge.net/DTD/sodipodi-0.dtd"
   xmlns:inkscape="http://www.inkscape.org/namespaces/inkscape"
   version="1.1"
   id="svg2"
   xml:space="preserve"
   width="4266.6665"
   height="2666.6667"
   viewBox="0 0 4266.6665 2666.6667"
   sodipodi:docname="5282.eps"><metadata
     id="metadata8"><rdf:RDF><cc:Work
         rdf:about=""><dc:format>image/svg+xml</dc:format><dc:type
           rdf:resource="http://purl.org/dc/dcmitype/StillImage" /></cc:Work></rdf:RDF></metadata><defs
     id="defs6" /><sodipodi:namedview
     pagecolor="#ffffff"
     bordercolor="#666666"
     borderopacity="1"
     objecttolerance="10"
     gridtolerance="10"
     guidetolerance="10"
     inkscape:pageopacity="0"
     inkscape:pageshadow="2"
     inkscape:window-width="640"
     inkscape:window-height="480"
     id="namedview4" /><g
     id="g10"
     inkscape:groupmode="layer"
     inkscape:label="ink_ext_XXXXXX"
     transform="matrix(1.3333333,0,0,-1.3333333,0,2666.6667)"><g
       id="g12"
       transform="scale(0.1)"><path
         d="M 0,0 H 32000 V 20000 H 0 Z"
         style="fill:#ffffff;fill-opacity:1;fill-rule:nonzero;stroke:none"
         id="path14" /><path
         d="m 30198.8,7212.5 c -1.1,-56.5 -3.3,-111.8 -5.5,-167.1 -3.4,-55.3 -6.7,-109.5 -10,-163.7 -8.8,-116.2 -21,-231.2 -36.5,-343 -18.8,-143.8 -42,-285.4 -68.6,-421.5 -7.7,-38.7 -15.5,-76.3 -23.2,-113.9 -3.3,-15.5 -6.7,-29.9 -10,-44.2 l -2.2,-7.8 c -4.4,-19.9 -8.8,-39.8 -13.3,-59.7 -3.3,-18.8 -7.7,-37.6 -12.1,-55.4 -16.6,-68.5 -34.3,-136 -52,-201.3 -1.1,-5.5 -3.3,-11 -4.4,-16.6 -2.3,-6.6 -3.4,-13.2 -5.6,-19.9 -19.9,-74.1 -40.9,-144.9 -61.9,-214.6 -28.8,-94.1 -58.7,-183.7 -88.5,-271 -8.9,-25.5 -17.7,-51 -26.6,-75.3 -13.3,-36.5 -26.5,-73 -38.7,-108.4 0,0 0,0 0,-1.1 -12.2,-28.8 -22.1,-55.3 -33.2,-83 -16.6,-44.2 -34.3,-86.3 -50.9,-128.3 -25.4,-62 -50.9,-121.7 -75.2,-177 -5.5,-13.3 -11.1,-25.5 -16.6,-37.6 -11.1,-25.5 -22.1,-49.8 -32.1,-73 -22.1,-48.7 -44.2,-95.2 -65.3,-138.3 -21,-43.2 -40.9,-84.1 -59.7,-121.7 -70.8,-139.4 -130.5,-254.5 -157.1,-304.3 -8.9,-17.7 -14.4,-27.6 -14.4,-27.6 0,0 -27256.68,-3.3 -27257.78,-2.2 -720.19,1609.6 96.24,2839.8 1804.35,4230.4 1278.87,1043.3 3654.07,1403.9 3034.55,3606.5 -731.26,2596.5 2723.68,3446.1 6171.98,2635.2 2697.1,-633.9 5179.6,-2884.1 7049.3,-2129.6 3623,1462.5 5359.9,810.9 6363.3,389.4 32.1,-13.3 64.2,-26.5 95.2,-40.9 147.1,-64.2 295.3,-137.2 444.7,-218 31,-16.6 61.9,-34.2 94,-52 104,-58.6 209.1,-121.7 314.2,-189.1 48.7,-32.1 97.4,-64.2 147.1,-97.4 3.4,-2.2 7.8,-4.4 11.1,-7.7 67.5,-45.4 135,-91.9 202.5,-141.6 78.5,-57.6 157.1,-117.3 236.7,-180.3 140.5,-110.7 281,-230.2 422.6,-357.4 54.2,-48.7 107.3,-98.5 161.5,-149.3 63.1,-58.7 123.9,-118.4 182.6,-179.3 54.2,-56.4 107.3,-112.8 158.2,-169.2 17.7,-18.8 35.4,-38.7 53.1,-58.7 43.1,-48.6 84,-98.4 125,-147.1 37.6,-45.3 73,-91.8 108.4,-137.2 13.3,-17.7 26.5,-35.4 39.8,-52 21,-28.7 42,-56.4 62,-85.1 43.1,-60.9 85.1,-120.6 123.9,-181.5 53.1,-80.7 102.9,-161.5 149.3,-242.3 6.7,-11 13.3,-22.1 19.9,-34.3 5.6,-9.9 11.1,-19.9 16.6,-29.8 15.5,-27.7 31,-56.5 46.5,-84.1 104,-195.8 192.5,-392.7 266.6,-589.6 4.4,-12.2 8.8,-24.4 13.3,-36.6 7.7,-19.9 14.4,-39.8 21,-59.7 13.3,-36.5 25.5,-73 37.6,-109.5 11.1,-35.4 22.1,-71.9 33.2,-107.3 1.1,-4.5 3.3,-10 4.4,-14.4 8.9,-29.9 16.6,-58.6 25.5,-88.5 14.4,-53.1 28.7,-106.2 40.9,-159.3 19.9,-84.1 37.6,-167.1 53.1,-251.1 1.1,-7.8 3.3,-16.7 4.4,-24.4 14.4,-80.8 26.6,-160.4 37.6,-240.1 37.7,-285.4 50.9,-566.4 45.4,-839.6"
         style="fill:#edf4ff;fill-opacity:1;fill-rule:nonzero;stroke:none"
         id="path16" /><path
         d="m 4464.54,3847.7 c 0,0 230.38,659.5 983.63,703.1 753.26,43.5 1171.82,628.7 1950.18,491.8 778.36,-136.9 836.82,-711.5 1164.55,-870 161.67,-78.2 644.97,-29.2 1168.34,19.8 537.56,50.4 1117.46,100.7 1434.46,13.2 625.7,-172.8 918.9,257.2 1500.8,443.1 582,186 963.7,-69 1382.4,-359 418.7,-290.1 1004.7,32.6 979.1,-428.4 L 4464.54,3847.7"
         style="fill:#b8e0af;fill-opacity:1;fill-rule:nonzero;stroke:none"
         id="path18" /><path
         d="M 14492.4,7172.6 C 12332,7235.3 10053.3,9269.3 9403.77,9893.1 H 8665.56 14492.4 V 7172.6"
         style="fill:#dfe9f9;fill-opacity:1;fill-rule:nonzero;stroke:none"
         id="path20" /><path
         d="m 8668.83,10364.2 -1.28,-183.2 -38.04,-5508.4 c -0.1,-13.2 -4.81,-23.9 -10.6,-23.9 h -2.82 c -11.41,0 -20.73,20.9 -20.99,47.1 l -52.7,5317.1 -3.48,351.3 h 129.91"
         style="fill:#e58638;fill-opacity:1;fill-rule:nonzero;stroke:none"
         id="path22" /><path
         d="m 8668.83,10364.2 -1.28,-183.2 c -34.75,-25 -84.51,-74.3 -125.16,-168.1 l -3.47,351.3 h 129.91"
         style="fill:#cc621b;fill-opacity:1;fill-rule:nonzero;stroke:none"
         id="path24" /><path
         d="m 14492.4,4448.5 h -679.9 c -236.9,150.2 -476.4,263.5 -763.3,263.5 -118.4,0 -244.9,-19.3 -382.7,-63.3 -166.9,-53.3 -310,-126.7 -444.1,-200.2 H 8280.52 c -170.36,225.6 -371.04,504.2 -882.17,594.1 -38.25,6.7 -75.54,11.7 -112.13,15.1 v 4835.4 h 1257.36 l 51.52,-5197.3 c 0.26,-26.2 9.58,-47.1 20.99,-47.1 h 2.82 c 5.79,0 10.5,10.7 10.6,23.9 l 36.05,5220.5 h 738.21 C 10053.3,9269.3 12332,7235.3 14492.4,7172.6 V 4448.5"
         style="fill:#d4e0f2;fill-opacity:1;fill-rule:nonzero;stroke:none"
         id="path26" /><path
         d="m 13812.5,4448.5 h -1590.1 c 134.1,73.5 277.2,146.9 444.1,200.2 137.8,44 264.3,63.3 382.7,63.3 286.9,0 526.4,-113.3 763.3,-263.5 m -5531.98,0 h -994.3 v 609.2 c 36.59,-3.4 73.88,-8.4 112.13,-15.1 511.13,-89.9 711.81,-368.5 882.17,-594.1"
         style="fill:#c2d9d5;fill-opacity:1;fill-rule:nonzero;stroke:none"
         id="path28" /><path
         d="m 8618.91,4648.7 h -2.82 c -11.41,0 -20.73,20.9 -20.99,47.1 l -51.52,5197.3 h 121.98 l -36.05,-5220.5 c -0.1,-13.2 -4.81,-23.9 -10.6,-23.9"
         style="fill:#d8a47e;fill-opacity:1;fill-rule:nonzero;stroke:none"
         id="path30" /><path
         d="m 16426.2,3881.1 h -710.6 c -38.1,32.3 26.4,105.6 93.7,110.6 29.2,2.2 66.2,-3.9 108.4,-12.9 9.8,129.9 65.7,713.8 276.1,690.3 236.6,-26.3 0,-257.1 -66.9,-393.8 -49.5,-101.2 -101.8,-246.4 -125.7,-314.9 19.2,-4.2 39.1,-8.3 59.4,-12 31.4,96.3 148.1,420.2 296.5,401.4 174.2,-22.1 104.2,-152 -19.3,-229.1 -90.6,-56.7 -201.9,-137.3 -254.7,-176.2 44.8,-7.3 91.5,-12.2 138.9,-11.1 121.8,2.8 181.2,-33 204.2,-52.3"
         style="fill:#b8e0af;fill-opacity:1;fill-rule:nonzero;stroke:none"
         id="path32" /><path
         d="m 2480.73,3922.4 c -38.58,60.6 -154.67,217.9 -309.3,197 -168.48,-22.6 186.07,-133.7 294.62,-197.5 -24.1,-0.3 -44.83,1.6 -60.05,7 -72.57,25.9 -196.85,-23.7 -236.59,-41.1 h 690.86 c -4.77,16.5 -17.22,43.5 -49.4,63.2 -11.34,6.9 -34.14,7.9 -63.58,5.6 41.08,48.4 69.61,203.1 -44.75,163.3 -83.54,-29 -83.31,-123.6 -75.11,-179.5 -17.78,-2.8 -35.8,-5.6 -53.61,-8.1 -34.39,175.3 -156.05,689 -402.64,702.7 -249.98,13.9 211.99,-532.8 365.8,-707.6 -19.7,-2.4 -38.68,-4.2 -56.25,-5"
         style="fill:#b8e0af;fill-opacity:1;fill-rule:nonzero;stroke:none"
         id="path34" /><path
         d="m 13843.4,5321.7 -4.1,-181.6 -28.6,-1265.6 c -0.2,-7.9 -6.7,-14.1 -14.5,-14.1 -13.6,0 -24.8,10.7 -25.3,24.2 l -46.5,1198.3 -9.3,238.8 h 128.3"
         style="fill:#cc621b;fill-opacity:1;fill-rule:nonzero;stroke:none"
         id="path36" /><path
         d="m 13843.4,5321.7 -4.1,-181.6 c -36.2,-12.1 -78.9,-30.4 -114.9,-57.2 l -9.3,238.8 h 128.3"
         style="fill:#b25414;fill-opacity:1;fill-rule:nonzero;stroke:none"
         id="path38" /><path
         d="m 8073.56,5321.7 -4.1,-181.6 -28.67,-1265.6 c -0.18,-7.9 -6.62,-14.1 -14.51,-14.1 -13.57,0 -24.72,10.7 -25.25,24.2 l -46.53,1198.3 -9.24,238.8 h 128.3"
         style="fill:#cc621b;fill-opacity:1;fill-rule:nonzero;stroke:none"
         id="path40" /><path
         d="m 8073.56,5321.7 -4.1,-181.6 c -36.18,-12.1 -78.95,-30.4 -114.96,-57.2 l -9.24,238.8 h 128.3"
         style="fill:#b25414;fill-opacity:1;fill-rule:nonzero;stroke:none"
         id="path42" /><path
         d="M 14148.2,5260.8 H 7640.54 c -41.08,0 -74.69,33.6 -74.69,74.7 V 5711 c 0,41.1 33.61,74.7 74.69,74.7 h 6507.66 c 41,0 74.7,-33.6 74.7,-74.7 v -375.5 c 0,-41.1 -33.7,-74.7 -74.7,-74.7"
         style="fill:#e58638;fill-opacity:1;fill-rule:nonzero;stroke:none"
         id="path44" /><path
         d="m 30029.5,5891.6 c -3.3,-18.8 -7.7,-37.6 -12.1,-55.4 -16.6,-68.5 -34.3,-136 -52,-201.3 -1.1,-5.5 -3.3,-11.1 -4.4,-16.6 -2.3,-6.6 -3.4,-13.3 -5.6,-19.9 -19.9,-74.1 -40.9,-144.9 -61.9,-214.6 -28.8,-94.1 -58.7,-183.7 -88.5,-271 -8.9,-25.5 -17.7,-51 -26.6,-75.3 -13.3,-36.5 -26.5,-73 -38.7,-108.4 0,0 0,0 0,-1.1 -12.2,-28.8 -22.1,-55.3 -33.2,-83 -16.6,-44.2 -34.3,-86.3 -50.9,-128.3 -25.4,-62 -50.9,-121.7 -75.2,-177 -5.5,-13.3 -11.1,-25.5 -16.6,-37.6 -11.1,-25.5 -22.1,-49.8 -32.1,-73 h -1570.9 v 1462.5 h 2068.7"
         style="fill:#8e3900;fill-opacity:1;fill-rule:nonzero;stroke:none"
         id="path46" /><path
         d="m 22700.9,4429.6 h -2912.5 v 1462.2 h 2912.5 V 4429.6"
         style="fill:#8e3900;fill-opacity:1;fill-rule:nonzero;stroke:none"
         id="path48" /><path
         d="m 20301.6,4723.5 c 0,476.7 386.4,863.2 863.2,863.2 476.7,0 863.1,-386.5 863.1,-863.2 0,-476.7 -386.4,-863.1 -863.1,-863.1 -476.8,0 -863.2,386.4 -863.2,863.1"
         style="fill:#233862;fill-opacity:1;fill-rule:nonzero;stroke:none"
         id="path50" /><path
         d="m 21617.6,4723.5 c 0,-100.9 -33,-194 -88.8,-269.2 -82.4,-111.5 -214.8,-183.6 -364,-183.6 -250.1,0 -452.9,202.7 -452.9,452.8 0,194.1 122.1,359.7 293.7,424.1 49.5,18.6 103.2,28.8 159.2,28.8 250.1,0 452.8,-202.7 452.8,-452.9"
         style="fill:#466aa5;fill-opacity:1;fill-rule:nonzero;stroke:none"
         id="path52" /><path
         d="m 30153.4,8052.1 c -11,79.7 -23.2,159.3 -37.6,240.1 -1.1,7.7 -3.3,16.6 -4.4,24.4 -15.5,84 -33.2,167 -53.1,251.1 l -11953.4,2217 c -17.7,0 -36.5,0 -54.2,-1.1 -3.4,0 -7.8,-1.1 -11.1,-1.1 -7.7,0 -14.4,-1.2 -21,-1.2 h -1.1 c -3.3,-1 -6.7,-1 -10,-1 -4.4,-1.2 -8.8,-1.2 -12.1,-2.2 -33.2,-3.4 -66.4,-10 -99.6,-17.8 -4.4,-1.1 -8.9,-2.2 -13.3,-3.3 -1.1,-1.1 -2.2,-1.1 -3.3,-1.1 -6.7,-2.2 -13.3,-3.3 -18.8,-5.5 -4.4,-1.1 -8.9,-2.2 -13.3,-3.3 -6.6,-2.2 -13.3,-4.5 -19.9,-6.7 -6.6,-2.2 -13.3,-4.4 -19.9,-6.6 -3.3,-1.1 -6.7,-3.4 -11.1,-4.4 -6.6,-2.2 -14.4,-5.6 -22.1,-8.9 -5.5,-2.2 -12.2,-4.4 -17.7,-7.7 -10,-3.4 -18.8,-7.8 -28.8,-12.2 -5.5,-3.3 -11,-5.5 -17.7,-8.8 -3.3,-2.3 -7.7,-3.4 -11,-5.6 -7.8,-4.4 -14.4,-7.7 -21.1,-11.1 -6.6,-4.4 -13.2,-7.7 -19.9,-12.1 -6.6,-3.3 -12.1,-6.7 -18.8,-11.1 -1.1,-1.1 -2.2,-1.1 -3.3,-2.2 -6.6,-3.3 -12.2,-7.7 -17.7,-11 -5.5,-4.5 -11,-7.8 -16.6,-12.2 -5.5,-3.3 -11.1,-6.7 -16.6,-11.1 -3.3,-2.2 -6.6,-5.5 -11.1,-7.7 -14.3,-11.1 -28.7,-23.3 -42,-35.4 -3.3,-2.2 -6.6,-4.5 -8.8,-6.7 -4.5,-4.4 -8.9,-7.7 -12.2,-11 -4.4,-4.4 -8.9,-7.8 -13.3,-12.2 l -24.3,-24.3 c -4.4,-4.5 -8.9,-8.9 -12.2,-13.3 -5.5,-4.4 -9.9,-10 -14.4,-14.4 -2.2,-3.3 -5.5,-6.6 -8.8,-9.9 -5.6,-7.8 -11.1,-14.4 -16.6,-21.1 -3.3,-3.3 -5.5,-6.6 -8.9,-10 -2.2,-4.3 -5.5,-7.7 -7.7,-11 -5.5,-7.7 -11.1,-14.4 -16.6,-22.1 -2.2,-3.3 -4.4,-6.7 -6.6,-11.1 -3.4,-3.3 -5.6,-6.6 -7.8,-11.1 -4.4,-5.5 -8.8,-12.1 -13.3,-18.8 0,-1.1 0,-1.1 -1.1,-1.1 -1.1,-3.3 -3.3,-5.5 -4.4,-8.8 -3.3,-4.4 -5.5,-8.9 -8.8,-13.3 -2.2,-4.4 -4.5,-6.6 -5.6,-11.1 -1.1,0 -1.1,-1 -1.1,-1 -1.1,-3.4 -3.3,-6.7 -5.5,-10 -3.3,-5.5 -6.7,-12.2 -10,-17.7 -3.3,-7.7 -7.7,-15.5 -11,-23.2 -3.3,-6.7 -6.7,-13.3 -8.9,-20 -2.2,-3.3 -3.3,-6.6 -5.5,-9.9 -1.1,-4.4 -2.2,-7.8 -4.4,-11.1 -3.4,-7.7 -5.6,-14.4 -8.9,-22.1 -2.2,-6.6 -5.5,-13.3 -7.7,-21 -1.1,-3.3 -3.3,-7.7 -4.5,-12.2 -1.1,-3.3 -2.2,-6.6 -3.3,-9.9 -1.1,-2.3 -1.1,-4.5 -2.2,-6.7 -1.1,-3.3 -2.2,-7.7 -3.3,-11 -2.2,-5.6 -3.3,-11.1 -5.5,-16.6 -1.1,-4.5 -2.3,-8.9 -3.4,-13.3 -1.1,-4.4 -2.2,-7.8 -3.3,-12.2 -12.1,-43.1 -23.2,-87.4 -35.4,-133.9 -2.2,-7.7 -4.4,-15.4 -6.6,-23.2 -13.3,-48.6 -26.6,-98.4 -39.8,-149.3 -3.4,-10 -5.6,-21.1 -8.9,-32.1 -1.1,-5.5 -2.2,-10 -3.3,-14.4 -4.4,-15.5 -8.9,-31 -12.2,-46.5 -4.4,-15.5 -8.8,-32 -13.3,-47.5 0,-2.2 -1.1,-4.4 -2.2,-7.8 -1.1,-7.7 -3.3,-15.5 -5.5,-23.2 -2.2,-6.6 -3.3,-12.2 -4.4,-17.7 -4.5,-14.4 -7.8,-27.7 -11.1,-42 -5.5,-18.9 -9.9,-37.7 -15.5,-56.5 -3.3,-14.4 -7.7,-29.8 -11,-45.3 -12.2,-45.4 -24.4,-91.8 -36.5,-138.3 -5.6,-23.2 -11.1,-45.4 -17.7,-68.6 -5.6,-23.2 -12.2,-46.5 -17.7,-69.7 -5.6,-23.2 -12.2,-46.5 -17.8,-69.7 -5.5,-21 -9.9,-42 -15.4,-63.1 -15.5,-60.8 -31,-121.6 -45.4,-181.4 -5.5,-23.2 -11.1,-45.3 -16.6,-67.5 -2.2,-7.7 -3.3,-15.4 -5.5,-22.1 -5.5,-23.2 -11.1,-45.3 -16.6,-67.5 -1.1,-4.4 -1.1,-7.7 -2.2,-12.1 -4.4,-17.7 -8.9,-35.4 -13.3,-53.1 -2.2,-7.8 -3.3,-15.5 -5.5,-22.2 -4.5,-19.9 -8.9,-38.7 -13.3,-57.5 -2.2,-12.2 -5.5,-23.2 -7.8,-34.3 -5.5,-19.9 -9.9,-38.7 -14.3,-58.6 0,-1.1 0,-3.4 -1.1,-4.5 -2.2,-11 -4.5,-22.1 -6.7,-32 -1.1,-2.2 -1.1,-3.4 -1.1,-5.6 -2.2,-8.8 -4.4,-17.7 -6.6,-26.5 -2.2,-10 -4.4,-21 -6.7,-31 -5.5,-21 -9.9,-40.9 -14.3,-61.9 -1.1,-4.5 -2.3,-10 -3.4,-15.5 -5.5,-24.4 -11,-49.8 -16.6,-74.2 -1.1,-8.8 -3.3,-17.6 -5.5,-26.5 0,-2.2 -1.1,-4.4 -1.1,-6.6 -2.2,-7.8 -3.3,-16.6 -5.5,-24.4 -1.1,-3.3 -1.1,-6.6 -2.2,-9.9 -2.2,-12.2 -4.5,-24.4 -7.8,-36.5 v -1.1 c -1.1,-7.8 -3.3,-14.4 -4.4,-22.2 -4.4,-23.2 -8.9,-45.3 -13.3,-67.5 -23.2,-115 -40.9,-215.7 -50.9,-296.4 -54.2,-407.1 -75.2,-859.6 -80.7,-1297.7 -1.1,-188.1 0,-372.8 3.3,-548.7 1.1,-79.7 3.3,-157.1 5.5,-232.4 6.7,-214.6 15.5,-412.6 24.4,-585.2 5.5,-100.6 12.1,-191.4 16.6,-272.1 15.4,-220.2 196.9,-390.6 417,-390.6 h 3053.4 c -1.1,3.4 -1.1,6.7 -2.2,10 -25.5,90.7 -37.6,185.9 -37.6,284.3 0,413.8 233.4,773.3 576.3,953.6 144.9,76.4 308.7,119.5 482.4,122.9 184.7,2.2 359.5,-42.1 512.2,-122.9 339.6,-178.1 574.1,-531 579.7,-938.1 1.1,-104 -12.2,-204.6 -37.6,-299.8 -1.1,-3.3 -2.3,-6.6 -2.3,-10 h 1675 4190.6 222.3 c -26.5,94.1 -42,192.5 -42,294.3 0,603 489,1090.8 1090.8,1090.8 232.3,0 448,-71.9 624,-195.8 1.1,5.5 3.3,11.1 4.4,16.6 17.7,65.3 35.4,132.8 52,201.3 4.4,17.8 8.8,36.6 12.1,55.4 4.5,19.9 8.9,39.8 13.3,59.7 l 2.2,7.8 c 3.3,14.3 6.7,28.7 10,44.2 7.7,37.6 15.5,75.2 23.2,113.9 26.6,136.1 49.8,277.7 68.6,421.5 15.5,111.8 27.7,226.8 36.5,343 3.3,54.2 6.7,108.4 10,163.7 2.2,55.3 4.4,110.6 5.5,167.1 5.5,273.2 -7.7,554.2 -45.4,839.6"
         style="fill:#ed7d2b;fill-opacity:1;fill-rule:nonzero;stroke:none"
         id="path54" /><path
         d="m 18574.7,5482.2 h -533.4 c -53.5,0 -97.3,43.8 -97.3,97.3 0,53.6 43.8,97.3 97.3,97.3 h 533.4 c 53.5,0 97.3,-43.7 97.3,-97.3 0,-53.5 -43.8,-97.3 -97.3,-97.3"
         style="fill:#ffb93e;fill-opacity:1;fill-rule:nonzero;stroke:none"
         id="path56" /><path
         d="m 30153.4,8052.1 c 0,0 -13407.2,40.2 -13413,16.6 -22.9,-94.9 -40.4,-177.7 -51,-244.1 -68.2,-428.2 -85.1,-919.9 -79.7,-1367 1.4,-117 4.3,-231 8.3,-339.8 h 8750.8 v -0.6 h 4709.4 c 26.6,136.1 49.8,277.7 68.6,421.5 15.5,111.8 27.7,226.8 36.5,343 3.3,54.2 6.7,108.4 10,163.7 2.2,55.3 4.4,110.6 5.5,167.1 5.5,273.2 -7.7,554.2 -45.4,839.6"
         style="fill:#f99746;fill-opacity:1;fill-rule:nonzero;stroke:none"
         id="path58" /><path
         d="m 16830.4,5091.4 h -228.7 c -49.4,0 -89.9,40.5 -89.9,90 v 637.5 c 0,49.5 40.5,90 89.9,90 h 228.7 c 49.5,0 89.9,-40.5 89.9,-90 v -637.5 c 0,-49.5 -40.4,-90 -89.9,-90"
         style="fill:#ffb93e;fill-opacity:1;fill-rule:nonzero;stroke:none"
         id="path60" /><path
         d="m 30153.4,8052.1 c -11,79.7 -23.2,159.3 -37.6,240.1 -1.1,7.7 -3.3,16.6 -4.4,24.4 -15.5,84 -33.2,167 -53.1,251.1 -12.2,53.1 -26.5,106.2 -40.9,159.3 -8.9,29.9 -16.6,58.6 -25.5,88.5 -1.1,4.4 -3.3,9.9 -4.4,14.4 -11.1,35.4 -22.1,71.9 -33.2,107.3 -12.2,36.5 -24.3,73 -37.6,109.5 -6.6,19.9 -13.3,39.8 -21,59.7 -4.4,12.2 -8.9,24.4 -13.3,36.5 -74.1,197 -162.6,393.9 -266.6,589.7 -15.5,27.6 -31,56.4 -46.5,84.1 -5.5,9.9 -11,19.9 -16.6,29.8 -6.6,12.2 -13.2,23.3 -19.9,34.3 -46.4,80.8 -96.2,161.6 -149.3,242.3 -38.8,60.9 -80.8,120.6 -123.9,181.5 -20,28.7 -41,56.4 -62,85.1 -13.3,16.6 -26.5,34.3 -39.8,52 -35.4,45.4 -70.8,91.9 -108.4,137.2 -41,48.7 -81.9,98.5 -125,147.1 -17.7,20 -35.4,39.9 -53.1,58.7 h -7213 l -0.7,0.5 h -3553 c -17.9,0 -35.9,-0.5 -53.7,-1.7 -3.9,-0.2 -7.9,-0.6 -11.8,-0.8 -6.7,-0.5 -13.5,-1 -20.3,-1.7 l -1.8,-0.2 c -3.2,-0.3 -6.4,-0.6 -9.6,-1 h -0.4 c -3.9,-0.4 -7.9,-1 -11.9,-1.5 -33.5,-4.1 -66.5,-10.2 -98.9,-18.1 -4.6,-1.1 -9.3,-2.3 -13.9,-3.5 -1.2,-0.3 -2.3,-0.6 -3.5,-0.9 -6.2,-1.7 -12.5,-3.5 -18.7,-5.3 -4.3,-1.2 -8.6,-2.4 -12.8,-3.7 -6.6,-2.1 -13.4,-4.2 -20.1,-6.4 -6.6,-2.3 -13.3,-4.6 -19.9,-7 -3.6,-1.2 -7.2,-2.5 -10.7,-3.9 -7.3,-2.7 -14.7,-5.6 -22,-8.6 -6.2,-2.5 -12.4,-5 -18.5,-7.7 -9.5,-4.1 -18.9,-8.3 -28.2,-12.8 -6,-2.7 -11.9,-5.6 -17.7,-8.5 -3.9,-2 -7.8,-4 -11.7,-6 -6.9,-3.6 -13.8,-7.3 -20.6,-11.1 -6.8,-3.8 -13.6,-7.7 -20.3,-11.6 l -0.1,-0.1 c -6,-3.6 -12.1,-7.3 -18.2,-11 -1.4,-0.9 -2.7,-1.7 -4,-2.6 -5.8,-3.6 -11.6,-7.3 -17.4,-11.2 -5.5,-3.7 -11.1,-7.4 -16.6,-11.3 -5.4,-3.8 -10.8,-7.7 -16.2,-11.6 -3.6,-2.7 -7.1,-5.3 -10.7,-8 -14.7,-11.1 -29.1,-22.6 -43.1,-34.7 -2.8,-2.4 -5.7,-4.9 -8.5,-7.4 -4.2,-3.7 -8.4,-7.5 -12.5,-11.2 -4.2,-3.8 -8.3,-7.6 -12.3,-11.5 -8.4,-8 -16.8,-16.2 -25,-24.6 -4.2,-4.4 -8.3,-8.9 -12.5,-13.3 -4.6,-4.9 -9,-9.7 -13.4,-14.7 -3,-3.3 -5.9,-6.7 -8.8,-10.1 -6,-6.8 -11.7,-13.6 -17.2,-20.5 -2.8,-3.5 -5.6,-7 -8.4,-10.5 -2.8,-3.5 -5.5,-7.1 -8.2,-10.6 -5.4,-7.1 -10.8,-14.4 -16.1,-21.8 -2.5,-3.6 -5.1,-7.2 -7.6,-10.8 -2.5,-3.7 -5,-7.3 -7.5,-11.1 -79.8,-2.8 -171.5,-11.3 -265.8,-31 -351.6,-73.3 -573.8,-267.3 -644.9,-562.1 l -42.8,4.1 c -57,5.4 -108.9,-33.4 -119.8,-89.6 l -188.1,-971.6 c -12.5,-64.5 33.3,-125.7 98.6,-132 l 271.2,-25.8 c 61.2,-5.9 115.5,39 121.3,100.1 l 93.6,980.7 c 5.6,58.8 -35.7,111.2 -93.3,120.3 61.3,265.7 214.8,465.1 535.2,532.3 70.7,14.9 139.2,20.4 201.4,20.6 l -0.2,-0.3 c -2,-3.3 -3.9,-6.7 -5.6,-10.2 -3.4,-6 -6.6,-12 -9.8,-18.1 -3.9,-7.5 -7.8,-15.1 -11.5,-22.7 -3.1,-6.5 -6.2,-13 -9.2,-19.6 -1.6,-3.6 -3.2,-7.2 -4.8,-10.8 -1.6,-3.7 -3.2,-7.3 -4.7,-11 -3.1,-7.2 -6.1,-14.6 -9,-22 -2.6,-6.8 -5.2,-13.6 -7.8,-20.6 -1.4,-4.2 -3,-8.4 -4.3,-12.5 -1.2,-3.4 -2.3,-6.7 -3.4,-10.1 -0.7,-2.1 -1.4,-4 -2.1,-6.1 -1.2,-3.8 -2.4,-7.6 -3.6,-11.4 -1.7,-5.4 -3.3,-10.8 -4.9,-16.4 -1.3,-4.6 -2.6,-9.3 -3.9,-14 -0.9,-3.9 -2.1,-7.7 -3.1,-11.7 -11.7,-43.2 -23.7,-87.9 -36,-133.8 -2,-7.6 -4.1,-15.3 -6.1,-23 -13.1,-48.5 -26.4,-98.3 -39.9,-149.1 -2.9,-11 -5.8,-22 -8.8,-33.1 -0.8,-2.9 -1.6,-5.8 -2.4,-8.8 -2.1,-8.2 -4.3,-16.4 -6.5,-24.6 -2.4,-9 -4.8,-18.1 -7.1,-27.2 -4.1,-15.6 -8.3,-31.4 -12.5,-47.2 -0.6,-2.4 -1.3,-4.9 -2,-7.3 -2.4,-9.4 -4.9,-18.7 -7.3,-28 -1.2,-4.6 -2.4,-9 -3.5,-13.5 -3.7,-13.9 -7.3,-27.7 -11,-41.7 l -0.1,-0.6 c -4.9,-18.6 -9.9,-37.4 -14.8,-56.2 h 3909.3 V 8052.1 h 9150.1"
         style="fill:#233862;fill-opacity:1;fill-rule:nonzero;stroke:none"
         id="path62" /><path
         d="m 30153.4,8052.1 c -11,79.7 -23.2,159.3 -37.6,240.1 -1.1,7.7 -3.3,16.6 -4.4,24.4 -15.5,84 -33.2,167 -53.1,251.1 -12.2,53.1 -26.5,106.2 -40.9,159.3 -8.9,29.9 -16.6,58.6 -25.5,88.5 -1.1,4.4 -3.3,9.9 -4.4,14.4 -11.1,35.4 -22.1,71.9 -33.2,107.3 -12.2,36.5 -24.3,73 -37.6,109.5 -6.6,19.9 -13.3,39.8 -21,59.7 -4.4,12.2 -8.9,24.4 -13.3,36.5 -74.1,197 -162.6,393.9 -266.6,589.7 -15.5,27.6 -31,56.4 -46.5,84.1 -5.5,9.9 -11,19.9 -16.6,29.8 -6.6,12.2 -13.2,23.3 -19.9,34.3 -46.4,80.8 -96.2,161.6 -149.3,242.3 h -6932 -5199.6 c -12.1,-43.1 -23.2,-87.4 -35.4,-133.9 -2.2,-7.7 -4.4,-15.4 -6.6,-23.2 -13.3,-48.6 -26.6,-98.4 -39.8,-149.3 -3.4,-10 -5.6,-21.1 -8.9,-32.1 -1.1,-5.5 -2.2,-10 -3.3,-14.4 -4.4,-15.5 -8.9,-31 -12.2,-46.5 -4.4,-15.5 -8.8,-32 -13.3,-47.5 0,-2.2 -1.1,-4.4 -2.2,-7.8 -1.1,-7.7 -3.3,-15.5 -5.5,-23.2 -2.2,-6.6 -3.3,-12.2 -4.4,-17.7 -4.5,-14.4 -7.8,-27.7 -11.1,-42 -5.5,-18.9 -9.9,-37.7 -15.5,-56.5 -3.3,-14.4 -7.7,-29.8 -11,-45.3 -12.2,-45.4 -24.4,-91.8 -36.5,-138.3 -5.6,-23.2 -11.1,-45.4 -17.7,-68.6 -5.6,-23.2 -12.2,-46.5 -17.7,-69.7 -5.6,-23.2 -12.2,-46.5 -17.8,-69.7 -5.5,-21 -9.9,-42 -15.4,-63.1 -15.5,-60.8 -31,-121.6 -45.4,-181.4 -5.5,-23.2 -11.1,-45.3 -16.6,-67.5 -2.2,-7.7 -3.3,-15.4 -5.5,-22.1 -5.5,-23.2 -11.1,-45.3 -16.6,-67.5 -1.1,-4.4 -1.1,-7.7 -2.2,-12.1 -4.4,-17.7 -8.9,-35.4 -13.3,-53.1 -2.2,-7.8 -3.3,-15.5 -5.5,-22.2 -4.5,-19.9 -8.9,-38.7 -13.3,-57.5 -2.2,-12.2 -5.5,-23.2 -7.8,-34.3 -5.5,-19.9 -9.9,-38.7 -14.3,-58.6 0,-1.1 0,-3.4 -1.1,-4.5 -2.2,-11 -4.5,-22.1 -6.7,-32 -1.1,-2.2 -1.1,-3.4 -1.1,-5.6 -2.2,-8.8 -4.4,-17.7 -6.6,-26.5 -2.2,-10 -4.4,-21 -6.7,-31 -5.5,-21 -9.9,-40.9 -14.3,-61.9 -1.1,-4.5 -2.3,-10 -3.4,-15.5 -5.5,-24.4 -11,-49.8 -16.6,-74.2 -1.1,-8.8 -3.3,-17.6 -5.5,-26.5 0,-2.2 -1.1,-4.4 -1.1,-6.6 -2.2,-7.8 -3.3,-16.6 -5.5,-24.4 -1.1,-3.3 -1.1,-6.6 -2.2,-9.9 -2.2,-12.2 -4.5,-24.4 -7.8,-36.5 v -1.1 c -1.1,-7.8 -3.3,-14.4 -4.4,-22.2 -4.4,-23.2 -8.9,-45.3 -13.3,-67.5 l 325.3,-1.1 h 122.8 l 670.4,-1.1 828.6,-1.1 h 148.2 l 4877.6,-8.8 c -1.1,4.4 -2.2,8.8 -4.4,12.1 h 6444.1"
         style="fill:#38568a;fill-opacity:1;fill-rule:nonzero;stroke:none"
         id="path64" /><path
         d="m 18934.6,9631 c 5.8,94.9 -69.5,175.1 -164.6,175.1 h -753.4 c -484.9,0 -818.9,-384.2 -878.1,-878.1 l -174.9,-2145.4 c -6,-73.5 52,-136.4 125.7,-136.4 h 1544.3 c 65.2,0 119,50.6 123.1,115.6 l 177.9,2869.2"
         style="fill:#38568a;fill-opacity:1;fill-rule:nonzero;stroke:none"
         id="path66" /><path
         d="m 18787.2,9494.6 -128.8,-1887.2 -45.1,-660.3 c 0,-85 -68.9,-153.9 -153.8,-153.9 h -1203.4 c -211.3,0 -148.5,313.5 -131.4,511.3 l 133,1551.1 c 0,29.9 1.5,59.5 4.6,88.7 41,396.5 354.1,704.9 734.3,704.9 h 451.1 c 91.5,0 339.5,0 339.5,-154.6"
         style="fill:#466aa5;fill-opacity:1;fill-rule:nonzero;stroke:none"
         id="path68" /><path
         d="m 21617.6,4723.5 c 0,-100.9 -33,-194 -88.8,-269.2 -502.8,138.6 -536,519.4 -523.2,693.3 49.5,18.6 103.2,28.8 159.2,28.8 250.1,0 452.8,-202.7 452.8,-452.9"
         style="fill:#5f87c1;fill-opacity:1;fill-rule:nonzero;stroke:none"
         id="path70" /><path
         d="m 29893.5,5383.8 c -28.8,-94.1 -58.7,-183.7 -88.5,-271 -8.9,-25.5 -17.7,-51 -26.6,-75.3 -13.3,-36.5 -26.5,-73 -38.7,-108.4 0,0 0,0 0,-1.1 -12.2,-28.8 -22.1,-55.3 -33.2,-83 -16.6,-44.2 -34.3,-86.3 -50.9,-128.3 -25.4,-62 -50.9,-121.7 -75.2,-177 -5.5,-13.3 -11.1,-25.5 -16.6,-37.6 -11.1,-25.5 -22.1,-49.8 -32.1,-73 -22.1,-48.7 -44.2,-95.2 -65.3,-138.3 -21,-43.2 -40.9,-84.1 -59.7,-121.7 -70.8,-139.4 -130.5,-254.5 -157.1,-304.3 -335.2,33.2 -612.9,258.9 -724.6,564.3 -33.2,91.8 -50.9,191.3 -50.9,294.2 0,476.8 386.1,862.9 862.9,862.9 211.3,0 406,-76.3 556.5,-202.4"
         style="fill:#233862;fill-opacity:1;fill-rule:nonzero;stroke:none"
         id="path72" /><path
         d="m 29739.7,4929.1 c 0,0 0,0 0,-1.1 -12.2,-28.8 -22.1,-55.3 -33.2,-83 -16.6,-44.2 -34.3,-86.3 -50.9,-128.3 -25.4,-62 -50.9,-121.7 -75.2,-177 -5.5,-13.3 -11.1,-25.5 -16.6,-37.6 -11.1,-25.5 -22.1,-49.8 -32.1,-73 -22.1,-48.7 -44.2,-95.2 -65.3,-138.3 -40.9,-13.3 -84,-19.9 -129.4,-19.9 -137.2,0 -260,60.8 -342.9,158.2 -68.6,78.5 -109.6,181.4 -109.6,294.2 0,194.7 121.7,359.6 293.2,424.8 49.8,17.7 102.9,28.8 159.3,28.8 175.9,0 328.6,-100.7 402.7,-247.8"
         style="fill:#466aa5;fill-opacity:1;fill-rule:nonzero;stroke:none"
         id="path74" /><path
         d="m 29739.7,4929.1 c 0,0 0,0 0,-1.1 -12.2,-28.8 -22.1,-55.3 -33.2,-83 -16.6,-44.2 -34.3,-86.3 -50.9,-128.3 -25.4,-62 -50.9,-121.7 -75.2,-177 -5.5,-13.3 -11.1,-25.5 -16.6,-37.6 -371.7,164.8 -397.2,489 -386.1,646 49.8,17.7 102.9,28.8 159.3,28.8 175.9,0 328.6,-100.7 402.7,-247.8"
         style="fill:#5f87c1;fill-opacity:1;fill-rule:nonzero;stroke:none"
         id="path76" /><path
         d="m 18658.4,7607.4 -45.1,-660.3 c 0,-85 -68.9,-153.9 -153.8,-153.9 h -1203.4 c -211.3,0 -148.5,313.5 -131.4,511.3 l 133,1551.1 c 0,29.9 1.5,59.5 4.6,88.7 209.7,-488.7 629.8,-1158.6 1396.1,-1336.9"
         style="fill:#3f6098;fill-opacity:1;fill-rule:nonzero;stroke:none"
         id="path78" /><path
         d="m 22953.4,8317 h -2243.8 c -94.6,0 -172,77.4 -172,172 v 1185.1 c 0,94.6 77.4,172 172,172 h 2243.8 c 94.6,0 172.1,-77.4 172.1,-172 V 8489 c 0,-94.6 -77.5,-172 -172.1,-172"
         style="fill:#466aa5;fill-opacity:1;fill-rule:nonzero;stroke:none"
         id="path80" /><path
         d="m 20132.2,8317 h -1005.3 c -65.6,0 -119.3,53.7 -119.3,119.3 v 1290.5 c 0,65.6 53.7,119.3 119.3,119.3 h 1005.3 c 65.6,0 119.2,-53.7 119.2,-119.3 V 8436.3 c 0,-65.6 -53.6,-119.3 -119.2,-119.3"
         style="fill:#466aa5;fill-opacity:1;fill-rule:nonzero;stroke:none"
         id="path82" /><path
         d="m 25858,8317 h -2243.9 c -94.6,0 -172,77.4 -172,172 v 1185.1 c 0,94.6 77.4,172 172,172 H 25858 c 94.6,0 172,-77.4 172,-172 V 8489 c 0,-94.6 -77.4,-172 -172,-172"
         style="fill:#466aa5;fill-opacity:1;fill-rule:nonzero;stroke:none"
         id="path84" /><path
         d="m 28723.2,8317 h -2243.9 c -94.6,0 -172,77.4 -172,172 v 1185.1 c 0,94.6 77.4,172 172,172 h 2243.9 c 94.6,0 172,-77.4 172,-172 V 8489 c 0,-94.6 -77.4,-172 -172,-172"
         style="fill:#466aa5;fill-opacity:1;fill-rule:nonzero;stroke:none"
         id="path86" /><path
         d="m 30058.3,8567.7 c 19.9,-84.1 37.6,-167.1 53.1,-251.1 h -763.3 c -95.2,0 -172.6,77.4 -172.6,172.5 V 9674 c 0,95.1 77.4,172.5 172.6,172.5 h 204.6 c 5.6,-9.9 11.1,-19.9 16.6,-29.8 15.5,-27.7 31,-56.5 46.5,-84.1 104,-195.8 192.5,-392.7 266.6,-589.7 4.4,-12.1 8.9,-24.3 13.3,-36.5 7.7,-19.9 14.4,-39.8 21,-59.7 13.3,-36.5 25.4,-73 37.6,-109.5 11.1,-35.4 22.1,-71.9 33.2,-107.3 1.1,-4.5 3.3,-10 4.4,-14.4 8.9,-29.9 16.6,-58.6 25.5,-88.5 14.4,-53.1 28.7,-106.2 40.9,-159.3"
         style="fill:#466aa5;fill-opacity:1;fill-rule:nonzero;stroke:none"
         id="path88" /><path
         d="m 11126.5,8791.8 c -41.8,63.5 -207.9,28 -371,-79.4 -163.1,-107.4 -261.4,-246 -219.5,-309.5 41.8,-63.6 207.9,-28 371,79.4 163.1,107.4 261.4,246 219.5,309.5"
         style="fill:#233862;fill-opacity:1;fill-rule:nonzero;stroke:none"
         id="path90" /><path
         d="m 10274.5,6431.1 32.2,-2 c -0.3,0.7 12.6,562.3 61.8,789.5 91.8,423.4 331.7,754.8 334.3,757.6 l -57.6,18.5 c -2.9,-3.1 -48.4,-73.6 -112.8,-203.6 -59.3,-119.8 -154.8,-319.4 -197,-551.8 -41.6,-229.5 -62.1,-805.2 -60.9,-808.2"
         style="fill:#233862;fill-opacity:1;fill-rule:nonzero;stroke:none"
         id="path92" /><path
         d="m 10856.4,8796.8 c 0,0 -210.4,44.9 -311.4,-126.3 -101,-171.1 -106.7,-468.6 -174,-565.9 -67.3,-97.2 -186.1,-507.8 -59.9,-599.7 126.3,-91.9 904.2,3.4 947.9,45.3 43.6,41.9 -2.7,473 -78.7,597.9 -76,124.9 109.2,712.3 -323.9,648.7"
         style="fill:#a53d38;fill-opacity:1;fill-rule:nonzero;stroke:none"
         id="path94" /><path
         d="m 11214.4,6719.8 c -148.4,474.2 18.9,755.5 2.8,992.7 -12,177.7 22.4,182.2 -8.5,231 -31.4,49.6 -204.4,80.5 -220.3,82 -12.3,6.5 -15.2,61.8 -15.1,116.3 0.2,65.3 5.2,134.6 5.2,134.6 l -220.4,43.7 -13.1,2.6 c 0.6,-153.3 -39.7,-253.9 -69,-277.5 -27.3,-2.8 -144.9,-16 -217.3,-43.2 -27.3,-10.2 -48.1,-22.4 -55.3,-36.7 -60.5,-119.4 -120.9,-420.6 -163.4,-635.5 -23.7,-119.8 -41.7,-212.8 -51.1,-232.5 -26.3,-54.9 -106.6,-357.3 -175.1,-506.6 l 75.6,-2.9 c 0,0 300.8,409.4 327.1,521.3 8.3,35.4 28.4,105.3 52,184.1 52.1,-143.1 78.9,-203.3 77.6,-259 -1.7,-72.2 -50.7,-137.1 -152.9,-366.5 -56.6,-126.8 972.7,-432.2 821.2,52.1"
         style="fill:#ffb27d;fill-opacity:1;fill-rule:nonzero;stroke:none"
         id="path96" /><path
         d="m 10651.4,4466.2 c 14.5,-57.6 30.5,-112.6 46.8,-163.7 3.5,-10.9 6.9,-21.7 10.4,-32.2 1.7,-5.3 3.5,-10.5 5.2,-15.6 3.4,-10.1 6.8,-20 10.1,-29.7 4.4,-12.7 8.8,-25 13.2,-36.9 3.1,-8.9 6.3,-17.6 9.5,-26 48.3,-129.6 88.7,-211.6 88.7,-211.6 l 96.2,6.6 c 0,0 -36.1,171.8 -43.3,418 -0.3,8.8 -0.5,17.6 -0.7,26.6 -0.3,19.1 -0.6,38.5 -0.6,58.4 0,8.1 0.1,16.4 0.1,24.7 2,212 28.2,462.5 112,701.7 68.1,194.5 117.4,376.5 153.1,540.9 115.3,530.8 88.2,879.6 88.2,879.6 l -541.3,-63.4 -25.2,-2.9 c -2.3,-248.6 -8.7,-586.2 -14.3,-850.1 -1,-45.8 -1.9,-89.4 -2.8,-129.9 -3.7,-169.5 -6.5,-285.3 -6.5,-285.3 -104.1,-224.1 -66.3,-540.4 1.2,-809.2"
         style="fill:#ffb27d;fill-opacity:1;fill-rule:nonzero;stroke:none"
         id="path98" /><path
         d="m 10978.5,8276.4 c 0,0 -5,-69.3 -5.2,-134.6 -123.3,3.5 -188.5,115.9 -215.2,178.3 l 220.4,-43.7"
         style="fill:#ef9e67;fill-opacity:1;fill-rule:nonzero;stroke:none"
         id="path100" /><path
         d="m 11314.7,6925.9 c 0,0 -25.7,-357.8 -17.1,-400.5 8.5,-42.7 -2.8,-195.1 -61.3,-223.2 -58.5,-28 -174,708.7 78.4,623.7"
         style="fill:#ffb27d;fill-opacity:1;fill-rule:nonzero;stroke:none"
         id="path102" /><path
         d="m 11019.6,8214.6 c 0,0 -291.7,-4.8 -291.9,176.9 -0.2,181.7 -38,303.5 148.3,314.2 186.2,10.8 222.5,-58.5 237.3,-119.2 14.8,-60.6 -17.8,-366 -93.7,-371.9"
         style="fill:#ffb27d;fill-opacity:1;fill-rule:nonzero;stroke:none"
         id="path104" /><path
         d="m 11008.9,8710.2 c 0,0 -79.9,-213.2 -202.5,-244.7 -122.6,-31.6 -175.8,1.3 -175.8,1.3 0,0 94.1,74.7 113.6,205.1 0,0 204.4,139.7 264.7,38.3"
         style="fill:#a53d38;fill-opacity:1;fill-rule:nonzero;stroke:none"
         id="path106" /><path
         d="m 10989.1,8692.9 c 0,0 59.6,-47.6 74.2,-93.9 14.5,-46.3 21,-141.5 48.8,-138.3 0,0 60.2,144.9 -7.5,226.9 -71.7,86.9 -115.5,5.3 -115.5,5.3"
         style="fill:#a53d38;fill-opacity:1;fill-rule:nonzero;stroke:none"
         id="path108" /><path
         d="m 11212.9,7937.7 c 0,0 221.5,-943.8 153.1,-1023.9 -68.4,-80.1 -243.8,-92.9 -269.4,-75.8 -25.7,17.1 116.3,1099.7 116.3,1099.7"
         style="fill:#ffa412;fill-opacity:1;fill-rule:nonzero;stroke:none"
         id="path110" /><path
         d="m 11000.1,8685.7 c 0,0 -56.9,-223.3 -211.5,-294.8 0,0 154.6,137.2 167.8,284.5 13.1,147.4 43.7,10.3 43.7,10.3"
         style="fill:#a53d38;fill-opacity:1;fill-rule:nonzero;stroke:none"
         id="path112" /><path
         d="m 10340.9,4512.8 c 31.2,-332.1 168.2,-546.9 168.2,-546.9 l 46.8,-42.6 c 0,0 42.6,243.2 73.4,521.6 29.3,264.7 69.5,544.7 115,630.2 68,127.7 118.1,388.9 154.1,664.8 59.6,456.7 80.8,953.8 80.8,953.8 l -548.9,27.2 c -55.2,-92.7 -79.2,-245 -84.9,-418 -6,-182 8.3,-387 28.2,-570.2 27.7,-256.5 66.4,-470.3 75.3,-518.3 l 0.1,-0.3 c 1.2,-6.3 -0.7,-12.6 -3.6,-18.3 -109.2,-216.2 -125,-463.5 -104.5,-683"
         style="fill:#ffb27d;fill-opacity:1;fill-rule:nonzero;stroke:none"
         id="path114" /><path
         d="m 11165.8,4582.1 c -472.7,-177.6 -1183.92,28.1 -1183.92,28.1 0,0 26.22,146.9 64.62,360.4 96.7,535.8 270.7,1490.7 301.3,1592 42.8,141.4 198.3,471.6 198.3,471.6 72.8,-24.3 148.3,-37 220.2,-42.4 207.7,-15.6 385.9,29 385.9,29 0,0 28.9,-97 90.9,-299.8 61.9,-202.9 -77.3,-2138.9 -77.3,-2138.9"
         style="fill:#bc3f3f;fill-opacity:1;fill-rule:nonzero;stroke:none"
         id="path116" /><path
         d="m 11240.6,7573.7 c -23.6,-233.4 -88.4,-550 -88.4,-550 -35.8,-18.9 -72.2,-32.8 -108.6,-42.6 -250.9,-68.2 -497.4,55.9 -497.4,55.9 0,0 -0.4,7.2 -1.1,15.9 -0.5,7.3 -1.2,15.4 -2,21.4 -1.9,13.2 -61.4,154.8 -61.4,154.8 0,0 -2.3,-11 -6.2,-29.8 -21.8,-103.5 -96.5,-443.9 -142.3,-474.6 -26.5,-17.7 -111.4,-17.9 -191.1,3.8 -83,22.5 -160.19,69 -160.19,144.4 0,96.7 175.69,533.7 302.29,833.1 l 0.1,0.4 c 67.4,159.7 106.6,270.7 158.2,283.1 0,0 346.8,-141.1 538.9,-119.5 66,7.5 187.1,63.2 224.2,77.1 1.1,-1.1 2.2,-2.3 3.1,-3.5 0.8,-0.9 1.5,-1.8 2.2,-2.8 0.8,-1 1.4,-2.1 2,-3.1 28.2,-41.4 23.7,-110.2 25.2,-136.5 2.8,-51.3 13.1,-123 2.5,-227.5"
         style="fill:#ffb93e;fill-opacity:1;fill-rule:nonzero;stroke:none"
         id="path118" /><path
         d="m 10481.6,7226.8 c 0,0 59.6,-142.1 61.5,-155.3 0.8,-6 1.5,-14.2 2.1,-21.4 28.7,-23.5 63.5,-41.3 99,-52.1 100.7,-30.5 144.5,162.6 138.5,258.9 -6,96.4 -148.5,371.4 -195.9,377.1 -47.4,5.6 -105.2,-407.2 -105.2,-407.2"
         style="fill:#ffa412;fill-opacity:1;fill-rule:nonzero;stroke:none"
         id="path120" /><path
         d="m 10475.5,7197 c 3.9,18.8 6.1,29.8 6.1,29.8 -3.1,-10.1 -5.1,-20.1 -6.1,-29.8"
         style="fill:#e58638;fill-opacity:1;fill-rule:nonzero;stroke:none"
         id="path122" /><path
         d="m 10891.4,6959.3 c 183.9,0 256.8,51.6 262.4,55.9 l 11.9,86.6 c -1.7,-1.3 -248.5,-149.5 -630.3,-7.6 l 8.1,-65.6 c 146.8,-54.6 252.4,-69.3 347.9,-69.3"
         style="fill:#a53232;fill-opacity:1;fill-rule:nonzero;stroke:none"
         id="path124" /><path
         d="m 9981.89,6869.6 c 0,-75.7 77.21,-122.3 160.21,-144.9 -114.3,136.1 135.7,959.4 142.1,980.4 -126.6,-300.3 -302.31,-738.6 -302.31,-835.5"
         style="fill:#ffa412;fill-opacity:1;fill-rule:nonzero;stroke:none"
         id="path126" /><path
         d="m 10779.9,3869.8 h 61.5 c 20.5,3.2 35.7,9.2 56.8,11.9 32.1,4.2 46.8,-8.9 49.7,-11.9 l 0.6,-0.6 h 260.9 c 6.6,9.3 0.3,31.1 -5.9,47 -4.2,10.9 -13.2,19.1 -24.4,22.4 -27.7,8 -82.2,15.1 -132.2,60.3 -28.1,25.4 -135.7,93.4 -135.7,93.4 l -0.6,0.1 c -2.3,0 -13.6,-3.5 -62.5,-44.8 -25.3,-21.3 -68.4,30.1 -68.4,30.1 0,0 -8.1,-6.7 -14.2,-19.2 -4.8,-9.8 -8.4,-23.3 -5.6,-40 3.9,-23.5 -8.6,-67.2 -18.7,-96.8 -6,-17.9 -11.2,-30.6 -11.2,-30.6 0,0 -2.9,-14.7 49.9,-21.3"
         style="fill:#233862;fill-opacity:1;fill-rule:nonzero;stroke:none"
         id="path128" /><path
         d="m 10765.5,4058.5 c 14.7,-10.3 45.6,-30.6 66.2,-33.3 27.7,-3.7 79.5,67.1 79.5,67.1 l -0.6,0.1 c -2.3,0 -13.6,-3.5 -62.5,-44.8 -25.3,-21.3 -68.4,30.1 -68.4,30.1 0,0 -8.1,-6.7 -14.2,-19.2"
         style="fill:#466aa5;fill-opacity:1;fill-rule:nonzero;stroke:none"
         id="path130" /><path
         d="m 10779.9,3869.8 h 61.5 c 20.5,3.2 35.7,9.2 56.8,11.9 32.1,4.2 46.8,-8.9 49.7,-11.9 l 0.6,-0.6 h 260.9 c 6.6,9.3 0.3,31.1 -5.9,47 -7.9,7.1 -10.2,-30.6 -14.5,-36.6 -4.4,-6 -212.9,-2.2 -224.9,6.6 -12,8.8 -48.2,24.1 -98.5,12 -43.8,-10.4 -108.4,16.4 -124.4,23.5 -6,-17.9 -11.2,-30.6 -11.2,-30.6 0,0 -2.9,-14.7 49.9,-21.3"
         style="fill:#466aa5;fill-opacity:1;fill-rule:nonzero;stroke:none"
         id="path132" /><path
         d="m 10452.2,3869.8 h 61.4 c 20.6,3.2 35.8,9.2 56.9,11.9 32,4.2 46.8,-8.9 49.7,-11.9 l 0.6,-0.6 h 260.9 c 6.5,9.3 0.2,31.1 -5.9,47 -4.2,10.9 -13.3,19.1 -24.5,22.4 -27.6,8 -82.2,15.1 -132.1,60.3 -28.1,25.4 -135.7,93.4 -135.7,93.4 l -0.6,0.1 c -2.4,0 -13.6,-3.5 -62.5,-44.8 -25.4,-21.3 -68.5,30.1 -68.5,30.1 0,0 -8.1,-6.7 -14.1,-19.2 -4.9,-9.8 -8.4,-23.3 -5.6,-40 3.9,-23.5 -8.7,-67.2 -18.7,-96.8 -6.1,-17.9 -11.2,-30.6 -11.2,-30.6 0,0 -2.9,-14.7 49.9,-21.3"
         style="fill:#233862;fill-opacity:1;fill-rule:nonzero;stroke:none"
         id="path134" /><path
         d="m 10437.8,4058.5 c 14.7,-10.3 45.6,-30.6 66.1,-33.3 27.7,-3.7 79.6,67.1 79.6,67.1 l -0.6,0.1 c -2.4,0 -13.6,-3.5 -62.5,-44.8 -25.4,-21.3 -68.5,30.1 -68.5,30.1 0,0 -8.1,-6.7 -14.1,-19.2"
         style="fill:#466aa5;fill-opacity:1;fill-rule:nonzero;stroke:none"
         id="path136" /><path
         d="m 10452.2,3869.8 h 61.4 c 20.6,3.2 35.8,9.2 56.9,11.9 32,4.2 46.8,-8.9 49.7,-11.9 l 0.6,-0.6 h 260.9 c 6.5,9.3 0.2,31.1 -5.9,47 -8,7.1 -10.2,-30.6 -14.6,-36.6 -4.4,-6 -212.8,-2.2 -224.8,6.6 -12.1,8.8 -48.2,24.1 -98.5,12 -43.9,-10.4 -108.4,16.4 -124.4,23.5 -6.1,-17.9 -11.2,-30.6 -11.2,-30.6 0,0 -2.9,-14.7 49.9,-21.3"
         style="fill:#466aa5;fill-opacity:1;fill-rule:nonzero;stroke:none"
         id="path138" /><path
         d="m 10046.5,4970.6 c 96.7,535.8 270.7,1490.7 301.3,1592 42.8,141.4 198.3,471.6 198.3,471.6 72.8,-24.3 148.3,-37 220.2,-42.4 8.3,-115.5 69.1,-1270.4 -719.8,-2021.2"
         style="fill:#a53232;fill-opacity:1;fill-rule:nonzero;stroke:none"
         id="path140" /><path
         d="m 10783.2,6428.5 -32.1,2.4 c 0.4,0.7 62.9,563.7 44.5,797.4 -34.2,435.5 -227.5,799.1 -229.7,802.3 l 59.6,10.6 c 2.4,-3.4 38,-80 84.4,-218.6 42.8,-127.8 110.7,-340.1 121.3,-578.1 10.5,-235 -46.4,-813.2 -48,-816"
         style="fill:#233862;fill-opacity:1;fill-rule:nonzero;stroke:none"
         id="path142" /><path
         d="m 10393.5,6552.1 c 0,0 31.2,76.9 80.9,96.1 l 253.7,-47.8 c 0,0 -62.6,-59.6 -68.5,-98.5 l -266.1,50.2"
         style="fill:#d2e4ff;fill-opacity:1;fill-rule:nonzero;stroke:none"
         id="path144" /><path
         d="m 10712,6118 -433.6,81.7 c -20.4,3.8 -33.8,23.5 -30,43.8 l 54.2,287.5 c 3.8,20.4 23.5,33.8 43.8,29.9 l 433.6,-81.7 c 20.4,-3.8 33.8,-23.5 30,-43.8 l -54.2,-287.5 c -3.8,-20.4 -23.5,-33.8 -43.8,-29.9"
         style="fill:#233862;fill-opacity:1;fill-rule:nonzero;stroke:none"
         id="path146" /><path
         d="m 10553.6,6444.1 -207.4,1.8 2.4,265.8 207.3,-1.8 -2.3,-265.8"
         style="fill:#e58638;fill-opacity:1;fill-rule:nonzero;stroke:none"
         id="path148" /><path
         d="m 10541.7,6444.2 -207.3,1.8 2.3,265.8 207.3,-1.8 -2.3,-265.8"
         style="fill:#ee9849;fill-opacity:1;fill-rule:nonzero;stroke:none"
         id="path150" /><path
         d="m 10508.6,6340.1 -164.6,126 161.5,211.1 164.7,-126 -161.6,-211.1"
         style="fill:#578e9b;fill-opacity:1;fill-rule:nonzero;stroke:none"
         id="path152" /><path
         d="m 10490.2,6354.2 -164.7,126 161.6,211.1 164.7,-126.1 -161.6,-211"
         style="fill:#74acbe;fill-opacity:1;fill-rule:nonzero;stroke:none"
         id="path154" /><path
         d="m 10606,6137.9 -415.1,78.3 c -25.5,4.8 -42.2,29.3 -37.4,54.8 l 50.7,269 c 4.8,25.5 29.3,42.2 54.8,37.4 l 415.1,-78.2 c 25.5,-4.8 42.2,-29.4 37.4,-54.8 l -50.7,-269 c -4.8,-25.5 -29.3,-42.3 -54.8,-37.5"
         style="fill:#2b478b;fill-opacity:1;fill-rule:nonzero;stroke:none"
         id="path156" /><path
         d="m 10507.9,8560.6 c 0,0 -132.7,264.2 52.7,368.6 185.5,104.4 321.3,63.4 423.3,-64.3 l -476,-304.3"
         style="fill:#233862;fill-opacity:1;fill-rule:nonzero;stroke:none"
         id="path158" /><path
         d="m 11255.1,8893.9 c -38.2,61.2 -171.8,51.3 -332.9,-14.7 -63.1,-25.7 -130.2,-60.1 -197.5,-102.1 -83.8,-52.3 -156.8,-109.4 -214,-165.4 -106.8,-104.4 -158.8,-204.3 -124.3,-259.7 10.6,-16.9 26.5,-27.9 50.3,-34.2 23.6,50.9 91.4,98.6 110.6,138.2 27.2,56.1 95.8,157.7 221.5,236.1 96.5,60.2 192.5,95.6 258.6,99.9 38.4,2.4 66.8,-5.6 79.2,-25.6 9.7,-15.6 8.7,-36.7 -1.3,-61.1 9.4,-15.8 20.1,-38.1 28.9,-67.8 104.5,103.2 155.1,201.6 120.9,256.4"
         style="fill:#2b478b;fill-opacity:1;fill-rule:nonzero;stroke:none"
         id="path160" /><path
         d="m 10013.8,6590.7 c 0,0 -71.95,-73.5 -83.36,-82.1 -11.4,-8.5 -24.61,-84.5 -14.25,-92.6 20.68,-16.1 35.75,21.1 68.42,39.6 32.69,18.6 51.29,44.5 51.29,36 0,-8.6 -41.39,-41.4 -36.32,-48.5 5.12,-7.1 61.32,32.1 74.12,40.6 12.8,8.6 15.7,104.1 15.7,104.1 l -75.6,2.9"
         style="fill:#ffb27d;fill-opacity:1;fill-rule:nonzero;stroke:none"
         id="path162" /><path
         d="m 9349.38,8384.2 17.35,1.3 21.13,68.1 c 81.33,201.6 8.59,275.1 -41.82,309.1 -63.37,42.8 -130.8,49.4 -130.8,49.4 -37.54,5.4 -69.77,3.8 -97.49,-2.8 h -0.33 c -303.6,62.6 -332.62,-497.1 -287.46,-531.2 45.16,-34.1 154.54,-30.2 154.54,-30.2 -6.02,5.9 -12.54,19.1 -12.54,19.1 33.11,-27.1 130.96,-17.5 130.96,-17.5 -38.15,40.8 -50.3,79.8 -49.43,113.9 l 79.24,5.6 c 20.12,-51.5 51.27,-102 79.75,-123.5 52.36,-39.6 157.24,-29.6 157.24,-29.6 -4.89,5.2 -8.65,21.8 -8.65,21.8 3.76,-10.6 22.83,-17.8 22.83,-17.8 13.04,0 40.06,13.3 40.06,13.3 0,0 -61.69,0.2 -74.58,151"
         style="fill:#233862;fill-opacity:1;fill-rule:nonzero;stroke:none"
         id="path164" /><path
         d="m 9477.12,6941.8 c 238.13,60.6 499.9,430 499.9,430 l -67.05,58.2 c -69.42,-81.9 -358.06,-222.8 -358.06,-222.8 1.55,74.9 -0.41,143.2 -5.14,205.4 -32.03,422.6 -191.34,563.4 -234.82,594.3 -7.02,5 -11.05,7.1 -11.05,7.1 0,0 -0.16,-3.1 -0.41,-8.9 -0.63,-12.6 -1.79,-37.9 -2.97,-72.6 -8.83,-258.6 -19.39,-1041.4 179.6,-990.7"
         style="fill:#ffb27d;fill-opacity:1;fill-rule:nonzero;stroke:none"
         id="path166" /><path
         d="m 9909.97,7430 c 1,10 7.71,155.2 36.55,182.8 28.85,27.6 85.78,65.3 102.18,62.2 16.3,-3 71.9,-95.4 45.7,-159.1 -26.3,-63.7 -117.38,-144.1 -117.38,-144.1 l -67.05,58.2"
         style="fill:#ffb27d;fill-opacity:1;fill-rule:nonzero;stroke:none"
         id="path168" /><path
         d="m 9850.8,7413.1 156.8,-6.5 c 5.2,-0.3 9.6,3.8 9.8,9 l 12.6,299 c 0.2,5.2 -3.9,9.6 -9.1,9.8 l -156.81,6.6 c -5.2,0.2 -9.6,-3.8 -9.82,-9 l -12.5,-299.1 c -0.22,-5.2 3.82,-9.6 9.03,-9.8"
         style="fill:#f1a34f;fill-opacity:1;fill-rule:nonzero;stroke:none"
         id="path170" /><path
         d="m 9891.54,7411.4 142.26,-5.9 c 9.2,-0.4 17,6.7 17.4,16 l 11.9,284.4 c 0.4,9.3 -6.8,17.1 -16,17.4 l -142.26,6 c -9.23,0.4 -17.02,-6.8 -17.41,-16 l -11.9,-284.5 c -0.38,-9.2 6.78,-17 16.01,-17.4"
         style="fill:#d86713;fill-opacity:1;fill-rule:nonzero;stroke:none"
         id="path172" /><path
         d="m 10060.6,7663.9 c 0,0 -42.8,47.8 -85.53,11.3 -42.77,-36.5 2.83,-114.4 39.93,-135.7 37.1,-21.3 49,-32.4 49,-32.4 l -3.4,156.8"
         style="fill:#ffb27d;fill-opacity:1;fill-rule:nonzero;stroke:none"
         id="path174" /><path
         d="m 8958.59,4484.9 c 14.51,-57.7 30.47,-112.6 46.72,-163.8 3.5,-10.9 6.93,-21.7 10.42,-32.2 1.75,-5.3 3.49,-10.5 5.18,-15.6 3.43,-10.1 6.8,-20 10.17,-29.7 4.4,-12.7 8.79,-25 13.13,-36.9 3.19,-8.9 6.38,-17.5 9.52,-26 48.28,-129.5 88.75,-211.6 88.75,-211.6 l 96.21,6.6 c 0,0 -36.13,171.8 -43.35,418 -0.24,8.8 -0.48,17.6 -0.66,26.6 -0.36,19.1 -0.61,38.5 -0.61,58.4 0,8.1 0.07,16.4 0.12,24.7 1.93,212 28.18,462.5 111.93,701.8 68.1,194.4 117.48,376.4 153.18,540.8 115.25,530.8 88.15,879.6 88.15,879.6 l -541.29,-63.4 -25.23,-2.9 c -2.29,-248.6 -8.67,-586.2 -14.27,-850.1 -0.97,-45.8 -1.87,-89.4 -2.77,-129.9 -3.73,-169.4 -6.57,-285.3 -6.57,-285.3 -104.1,-224.1 -66.28,-540.4 1.27,-809.1"
         style="fill:#cb7d45;fill-opacity:1;fill-rule:nonzero;stroke:none"
         id="path176" /><path
         d="m 8700.31,6686.3 c 102.3,229.4 151.24,294.3 152.94,366.5 1.36,57.1 -26.79,118.7 -81.46,269.7 -12.87,35.6 -21.76,72.2 -27.23,109.2 -43.24,291.1 125.13,605.8 229.76,627.3 29.12,7.7 78.47,112.8 77.87,282.3 l 13.1,-2.6 220.34,-43.6 c 0,0 -5.01,-69.4 -5.16,-134.7 -0.15,-54.4 2.79,-109.8 15.12,-116.3 15.87,-1.5 30.29,-4.4 30.29,-4.4 0,0 186.47,-130.9 198.51,-308.5 16.08,-237.3 -151.19,-518.5 -2.84,-992.8 151.46,-484.3 -877.76,-178.9 -821.24,-52.1"
         style="fill:#ffb27d;fill-opacity:1;fill-rule:nonzero;stroke:none"
         id="path178" /><path
         d="m 9285.63,8295.1 c 0,0 -5.01,-69.4 -5.16,-134.7 -123.3,3.5 -188.47,115.9 -215.18,178.3 l 220.34,-43.6"
         style="fill:#ef9e67;fill-opacity:1;fill-rule:nonzero;stroke:none"
         id="path180" /><path
         d="m 9326.81,8233.2 c 0,0 -291.73,-4.8 -291.93,176.9 -0.2,181.7 -37.99,303.5 148.26,314.2 186.25,10.8 222.52,-58.5 237.34,-119.1 14.82,-60.7 -17.79,-366.1 -93.67,-372"
         style="fill:#ffb27d;fill-opacity:1;fill-rule:nonzero;stroke:none"
         id="path182" /><path
         d="m 9316.01,8728.8 c 0,0 -79.87,-213.2 -202.46,-244.7 -122.57,-31.5 -175.74,1.3 -175.74,1.3 0,0 94.02,74.7 113.53,205.1 0,0 204.42,139.8 264.67,38.3"
         style="fill:#233862;fill-opacity:1;fill-rule:nonzero;stroke:none"
         id="path184" /><path
         d="m 9296.21,8711.5 c 0,0 59.65,-47.6 74.2,-93.9 14.54,-46.3 21.08,-141.5 48.84,-138.3 0,0 60.18,144.9 -7.45,226.9 -71.71,86.9 -115.59,5.3 -115.59,5.3"
         style="fill:#233862;fill-opacity:1;fill-rule:nonzero;stroke:none"
         id="path186" /><path
         d="m 8320.91,6442.6 87.58,-26.2 c 0,0 288.89,479.3 315.16,604 8.58,40.6 29.58,121.9 54.09,212.9 50.74,188.6 116.21,419.3 116.21,419.3 l 21.55,93.4 73.54,318.4 c 0,0 -140.81,-14.4 -223.18,-48.8 -27.27,-11.4 -48.07,-25 -55.34,-40.9 -60.51,-133 -120.92,-468.8 -163.37,-708.3 -23.66,-133.5 -41.71,-237.2 -51.14,-259.1 -26.26,-61.3 -106.52,-398.3 -175.1,-564.7"
         style="fill:#ffb27d;fill-opacity:1;fill-rule:nonzero;stroke:none"
         id="path188" /><path
         d="m 9307.29,8704.3 c 0,0 -56.9,-223.3 -211.57,-294.8 0,0 154.67,137.2 167.8,284.6 13.13,147.3 43.77,10.2 43.77,10.2"
         style="fill:#233862;fill-opacity:1;fill-rule:nonzero;stroke:none"
         id="path190" /><path
         d="m 8648.09,4531.5 c 31.12,-332.2 168.16,-547 168.16,-547 l 46.79,-42.6 c 0,0 42.62,243.2 73.4,521.6 29.32,264.7 69.54,544.7 115,630.2 67.97,127.7 118.07,388.9 154.14,664.8 59.6,456.7 80.74,953.8 80.74,953.8 l -548.82,27.3 c -55.21,-92.8 -79.24,-245 -84.96,-418.1 -6.02,-181.9 8.31,-387 28.18,-570.2 27.76,-256.5 66.41,-470.3 75.38,-518.3 l 0.06,-0.3 c 1.2,-6.3 -0.66,-12.6 -3.61,-18.3 -109.22,-216.2 -125,-463.5 -104.46,-682.9"
         style="fill:#d9935c;fill-opacity:1;fill-rule:nonzero;stroke:none"
         id="path192" /><path
         d="m 9288.54,7449 c 12.35,-301.5 57.45,-600 188.71,-580.8 160.88,23.5 202.78,173.6 211.33,285.2 5.3,69.5 -2.34,124.1 -2.34,124.1 0,0 -79.18,0.3 -92.01,12.1 -60.81,56.2 -42.75,607.1 -72.85,664.3 -30.11,57.2 -225.43,94 -225.43,94 0,0 -19.69,-301 -7.41,-598.9"
         style="fill:#ed7d2b;fill-opacity:1;fill-rule:nonzero;stroke:none"
         id="path194" /><path
         d="m 9288.54,7449 c 12.35,-301.5 57.45,-600 188.71,-580.8 160.88,23.5 202.78,173.6 211.33,285.2 -39.49,2 -109.04,11.7 -136.68,53.8 -39.55,60.3 -162.98,448.7 -162.98,448.7 0,0 -48.53,-87.2 -100.38,-206.9"
         style="fill:#ed7d2b;fill-opacity:1;fill-rule:nonzero;stroke:none"
         id="path196" /><path
         d="m 8958.59,4484.9 c 14.51,-57.7 30.47,-112.6 46.72,-163.8 3.5,-10.9 6.93,-21.7 10.42,-32.2 1.75,-5.3 3.49,-10.5 5.18,-15.6 3.43,-10.1 6.8,-20 10.17,-29.7 4.4,-12.7 8.79,-25 13.13,-36.9 3.19,-8.9 6.38,-17.5 9.52,-26 48.28,-129.5 88.75,-211.6 88.75,-211.6 l 96.21,6.6 c 0,0 -36.13,171.8 -43.35,418 -0.24,8.8 -0.48,17.6 -0.66,26.6 -0.36,19.1 -0.61,38.5 -0.61,58.4 0,8.1 0.07,16.4 0.12,24.7 1.93,212 28.18,462.5 111.93,701.8 68.1,194.4 117.48,376.4 153.18,540.8 -57.2,-11.8 -107.56,0.3 -253.72,12.5 -15.36,1.3 -88.82,-89.6 -161.37,-210 -3.73,-169.4 -86.89,-254.5 -86.89,-254.5 -104.1,-224.1 -66.28,-540.4 1.27,-809.1"
         style="fill:#233862;fill-opacity:1;fill-rule:nonzero;stroke:none"
         id="path198" /><path
         d="m 8648.09,4531.5 c 31.12,-332.2 168.16,-547 168.16,-547 l 46.79,-42.6 c 0,0 42.62,243.2 73.4,521.6 29.32,264.7 69.54,544.7 115,630.2 67.97,127.7 118.07,388.9 154.14,664.8 -50.52,-21 -222.43,-75.6 -524.86,-7.2 27.76,-256.5 66.41,-470.3 75.38,-518.3 l 0.06,-0.3 c 1.2,-6.3 -0.66,-12.6 -3.61,-18.3 -109.22,-216.2 -125,-463.5 -104.46,-682.9"
         style="fill:#2b478b;fill-opacity:1;fill-rule:nonzero;stroke:none"
         id="path200" /><path
         d="m 8542.96,6147.6 c 0,0 114.83,-35.5 283.98,-58.9 209.44,-28.9 502.23,-39.3 763.7,58.9 0,0 21.55,389.1 -40.41,591.9 -61.96,202.9 -90.92,299.9 -90.92,299.9 0,0 -248.22,-62.2 -500.32,-13.9 -35.41,6.7 -70.88,15.7 -105.73,27.3 0,0 -155.52,-330.2 -198.28,-471.6 -42.76,-141.5 -112.02,-433.6 -112.02,-433.6"
         style="fill:#2b478b;fill-opacity:1;fill-rule:nonzero;stroke:none"
         id="path202" /><path
         d="m 8542.96,6147.6 c 0,0 114.83,-35.5 283.98,-58.9 310.18,175.9 158.93,916.1 158.93,916.1 -9.2,7.4 -18.18,14.3 -26.88,20.7 -35.41,6.7 -70.88,15.7 -105.73,27.3 0,0 -155.52,-330.2 -198.28,-471.6 -42.76,-141.5 -112.02,-433.6 -112.02,-433.6"
         style="fill:#233862;fill-opacity:1;fill-rule:nonzero;stroke:none"
         id="path204" /><path
         d="m 8289.05,6888.2 c 0,-75.7 77.25,-122.3 160.16,-144.9 79.72,-21.8 164.61,-21.5 191.17,-3.7 45.82,30.7 120.48,372.1 142.28,476 3.91,18.8 6.14,29.8 6.14,29.8 0,0 59.54,-142.1 61.41,-155.3 0.84,-6 1.57,-14.1 2.11,-21.4 0.6,-8.7 0.96,-15.9 0.96,-15.9 0,0 323.15,-163.1 606.02,-13.3 0,0 115.01,664.6 65.09,779 -24.81,56.8 -154.2,174.1 -205.98,224.7 -11.62,11.4 -10.48,33.9 -5.96,54.5 3.73,17.4 -11.92,32.7 -29.14,28.2 -33.3,-8.7 -93.21,-7.2 -157.39,13.9 -31.97,10.4 -64.97,25.7 -96.22,47 -9.09,6.2 -21.43,0.5 -22.82,-10.4 -4.88,-39.6 -16.86,-112 -38.72,-112 -30.1,0.2 -235.54,-25 -250.59,-50.4 -5.24,-8.9 -58.65,-129.7 -126.09,-289.8 l -0.11,-0.4 C 8464.8,7423.4 8289.05,6985.1 8289.05,6888.2"
         style="fill:#f99746;fill-opacity:1;fill-rule:nonzero;stroke:none"
         id="path206" /><path
         d="m 8788.8,7245.4 c 0,0 59.54,-142.1 61.41,-155.3 0.84,-6 1.57,-14.1 2.11,-21.4 28.78,-23.5 63.58,-41.3 99.05,-52 100.73,-30.6 144.5,162.5 138.48,258.9 -6.02,96.3 -148.48,371.3 -195.92,377 -47.39,5.7 -105.13,-407.2 -105.13,-407.2"
         style="fill:#ed7d2b;fill-opacity:1;fill-rule:nonzero;stroke:none"
         id="path208" /><path
         d="m 8782.66,7215.6 c 3.91,18.8 6.14,29.8 6.14,29.8 -3.14,-10.1 -5.18,-20.1 -6.14,-29.8"
         style="fill:#e58638;fill-opacity:1;fill-rule:nonzero;stroke:none"
         id="path210" /><path
         d="m 9195.71,6966.2 c 183.88,0 259.68,63.3 265.29,67.6 l 11.89,86.6 c -1.76,-1.3 -248.5,-149.5 -630.34,-7.6 l 8.09,-65.6 c 146.85,-54.5 249.57,-81 345.07,-81"
         style="fill:#b64c41;fill-opacity:1;fill-rule:nonzero;stroke:none"
         id="path212" /><path
         d="m 8289.05,6888.2 c 0,-75.7 77.25,-122.3 160.16,-144.9 -114.28,136.1 135.78,959.4 142.16,980.5 -126.57,-300.4 -302.32,-738.7 -302.32,-835.6"
         style="fill:#ed7d2b;fill-opacity:1;fill-rule:nonzero;stroke:none"
         id="path214" /><path
         d="m 8968.16,8064.4 c 0,0 153.84,-97.4 270.23,-74.3 0,0 27.94,17.6 -10.6,35.4 -36.18,16.6 -120.36,65.8 -101.87,114.3 -31.97,10.4 -64.97,25.7 -96.22,47 -9.09,6.2 -21.43,0.5 -22.82,-10.4 -4.88,-39.6 -16.86,-112 -38.72,-112"
         style="fill:#ed7d2b;fill-opacity:1;fill-rule:nonzero;stroke:none"
         id="path216" /><path
         d="m 9087.09,3888.4 h 61.42 c 20.57,3.2 35.76,9.2 56.86,12 32.04,4.2 46.79,-9 49.73,-12 l 0.56,-0.6 h 260.9 c 6.57,9.4 0.26,31.1 -5.91,47 -4.16,10.9 -13.22,19.1 -24.43,22.4 -27.66,8 -82.21,15.1 -132.15,60.3 -28.1,25.4 -135.7,93.4 -135.7,93.4 l -0.57,0.1 c -2.36,0 -13.61,-3.5 -62.56,-44.8 -25.29,-21.3 -68.41,30.1 -68.41,30.1 0,0 -8.1,-6.7 -14.14,-19.1 -4.86,-9.9 -8.41,-23.4 -5.61,-40.1 3.9,-23.5 -8.66,-67.2 -18.69,-96.7 -6.08,-17.9 -11.2,-30.6 -11.2,-30.6 0,0 -2.94,-14.8 49.9,-21.4"
         style="fill:#233862;fill-opacity:1;fill-rule:nonzero;stroke:none"
         id="path218" /><path
         d="m 9072.69,4077.2 c 14.66,-10.4 45.61,-30.7 66.14,-33.4 27.71,-3.6 79.54,67.1 79.54,67.1 l -0.57,0.1 c -2.36,0 -13.61,-3.5 -62.56,-44.8 -25.29,-21.3 -68.41,30.1 -68.41,30.1 0,0 -8.1,-6.7 -14.14,-19.1"
         style="fill:#466aa5;fill-opacity:1;fill-rule:nonzero;stroke:none"
         id="path220" /><path
         d="m 9087.09,3888.4 h 61.42 c 20.57,3.2 35.76,9.2 56.86,12 32.04,4.2 46.79,-9 49.73,-12 l 0.56,-0.6 h 260.9 c 6.57,9.4 0.26,31.1 -5.91,47 -7.93,7.1 -10.16,-30.6 -14.54,-36.5 -4.37,-6.1 -212.82,-2.2 -224.86,6.5 -12.04,8.8 -48.15,24.1 -98.49,12.1 -43.82,-10.5 -108.39,16.3 -124.37,23.5 -6.08,-17.9 -11.2,-30.6 -11.2,-30.6 0,0 -2.94,-14.8 49.9,-21.4"
         style="fill:#466aa5;fill-opacity:1;fill-rule:nonzero;stroke:none"
         id="path222" /><path
         d="m 8759.36,3888.4 h 61.41 c 20.57,3.2 35.76,9.2 56.86,12 32.04,4.2 46.79,-9 49.73,-12 l 0.56,-0.6 h 260.9 c 6.57,9.4 0.26,31.1 -5.91,47 -4.16,10.9 -13.22,19.1 -24.42,22.4 -27.67,8 -82.21,15.1 -132.16,60.3 -28.1,25.4 -135.7,93.4 -135.7,93.4 l -0.57,0.1 c -2.36,0 -13.61,-3.5 -62.55,-44.8 -25.3,-21.3 -68.42,30.1 -68.42,30.1 0,0 -8.1,-6.7 -14.14,-19.1 -4.86,-9.9 -8.4,-23.4 -5.6,-40.1 3.89,-23.5 -8.67,-67.2 -18.7,-96.7 -6.08,-17.9 -11.2,-30.6 -11.2,-30.6 0,0 -2.93,-14.8 49.91,-21.4"
         style="fill:#233862;fill-opacity:1;fill-rule:nonzero;stroke:none"
         id="path224" /><path
         d="m 8744.95,4077.2 c 14.66,-10.4 45.62,-30.7 66.14,-33.4 27.71,-3.6 79.54,67.1 79.54,67.1 l -0.57,0.1 c -2.36,0 -13.61,-3.5 -62.55,-44.8 -25.3,-21.3 -68.42,30.1 -68.42,30.1 0,0 -8.1,-6.7 -14.14,-19.1"
         style="fill:#466aa5;fill-opacity:1;fill-rule:nonzero;stroke:none"
         id="path226" /><path
         d="m 8759.36,3888.4 h 61.41 c 20.57,3.2 35.76,9.2 56.86,12 32.04,4.2 46.79,-9 49.73,-12 l 0.56,-0.6 h 260.9 c 6.57,9.4 0.26,31.1 -5.91,47 -7.92,7.1 -10.16,-30.6 -14.53,-36.5 -4.38,-6.1 -212.83,-2.2 -224.87,6.5 -12.04,8.8 -48.15,24.1 -98.49,12.1 -43.82,-10.5 -108.38,16.3 -124.37,23.5 -6.08,-17.9 -11.2,-30.6 -11.2,-30.6 0,0 -2.93,-14.8 49.91,-21.4"
         style="fill:#466aa5;fill-opacity:1;fill-rule:nonzero;stroke:none"
         id="path228" /><path
         d="m 8103.91,6069.4 c 6.07,30.5 27.51,55.3 56.66,66.1 47.28,17.6 124.69,33.4 219.87,5.4 160.65,-47.2 176.38,-146 165.75,-217 -10.63,-71 20.87,-184.2 16.24,-264.8 -4.62,-80.5 -27.69,-282.9 -146.65,-272.2 -118.95,10.6 -502.4,113.7 -502.4,113.7 0,0 -66.24,126 69.84,308.6 80.73,108.4 110.1,207 120.69,260.2"
         style="fill:#233862;fill-opacity:1;fill-rule:nonzero;stroke:none"
         id="path230" /><path
         d="m 8177.53,6162.5 31.82,-2.9 c 0.02,0.1 3.66,22 18.27,35.9 11.23,10.6 26.76,14.4 46.11,11.3 18.33,-3 31.51,-11.4 38.18,-24.9 9.42,-19.1 4.21,-43.6 4.14,-43.9 l 31.02,-7.1 c 0.38,1.6 9.36,41.5 -6.9,75 -11.17,23.2 -31.14,36.5 -58.77,41.7 -28.51,4.5 -52.61,-2.4 -71.66,-20.7 -26.28,-25.3 -31.98,-62.8 -32.21,-64.4"
         style="fill:#233862;fill-opacity:1;fill-rule:nonzero;stroke:none"
         id="path232" /><path
         d="m 7834.56,5518.5 c 0,0 383.49,-103.3 502.54,-113.7 118.95,-10.8 142.11,191.5 146.48,272.4 4.68,80.3 -26.7,193.6 -16.25,264.7 2.18,13.5 3.38,28.4 2.43,43.4 -3.07,63.4 -38.56,135.4 -167.92,173.4 -95.45,28.1 -172.63,12 -220.11,-5.5 -29,-10.8 -50.69,-35.5 -56.7,-65.9 -1.4,-6.2 -2.68,-13.8 -4.36,-21.2 -13.66,-56.5 -45.25,-144.3 -116.33,-239.1 -136.13,-182.5 -69.78,-308.5 -69.78,-308.5"
         style="fill:#2b478b;fill-opacity:1;fill-rule:nonzero;stroke:none"
         id="path234" /><path
         d="m 8425.66,5660.2 c 0,0 -53.33,-51.4 -125.38,-33.3 -72.05,18.1 -105.74,85.6 -105.74,85.6 l 231.12,-52.3"
         style="fill:#233862;fill-opacity:1;fill-rule:nonzero;stroke:none"
         id="path236" /><path
         d="m 8147.63,5723.1 c 0,0 -53.33,-51.4 -125.39,-33.3 -72.05,18.1 -105.74,85.6 -105.74,85.6 l 231.13,-52.3"
         style="fill:#233862;fill-opacity:1;fill-rule:nonzero;stroke:none"
         id="path238" /><path
         d="m 8025.03,6087.3 c -1.4,-6.2 -2.68,-13.8 -4.36,-21.2 30.56,-63.1 88.48,-143.6 186.51,-162.3 166.71,-32.5 262.58,81.5 262.58,81.5 -3.07,63.4 -38.56,135.4 -167.92,173.4 -95.45,28.1 -172.63,12 -220.11,-5.5 -29,-10.8 -50.69,-35.5 -56.7,-65.9"
         style="fill:#233862;fill-opacity:1;fill-rule:nonzero;stroke:none"
         id="path240" /><path
         d="m 8204.82,5868.8 v 0 c 10.44,-2.3 20.91,4.3 23.27,14.7 l 3.9,17.3 c 2.37,10.4 -4.24,20.9 -14.68,23.2 -10.43,2.4 -20.9,-4.2 -23.26,-14.7 l -3.9,-17.2 c -2.37,-10.4 4.24,-20.9 14.67,-23.3"
         style="fill:#d86713;fill-opacity:1;fill-rule:nonzero;stroke:none"
         id="path242" /><path
         d="m 8327.12,6457.2 c 0,0 -26.63,-62.7 -54.36,-80.2 -27.72,-17.5 -54.06,-59.6 -59.82,-93.4 -10.56,-62.2 37.06,-100.7 72.08,-100.7 35.02,0 68.49,47.7 89.08,161.8 1.13,6.2 34.37,71.7 34.37,71.7 l -81.35,40.8"
         style="fill:#ffb27d;fill-opacity:1;fill-rule:nonzero;stroke:none"
         id="path244" /><path
         d="m 13525.6,3860.4 21.8,2331.8 c 0,0 18.8,167.9 165.3,167.9 156.3,0 165.3,-167.9 165.3,-167.9 0,0 -2.2,-14.6 -18.3,-14.6 -16.8,0 -19.5,14.6 -19.5,14.6 0,0 -7,129.4 -127.5,129.4 -112.9,0 -127.4,-129.4 -127.4,-129.4 V 3860.4 h -59.7"
         style="fill:#233862;fill-opacity:1;fill-rule:nonzero;stroke:none"
         id="path246" /><path
         d="m 13605.4,3860.4 h -97.3 l 8.7,101.6 c 0,0 -0.8,14.1 18.8,14.9 18.3,0.8 54.3,3.4 57.7,-7.7 3,-9.6 12.1,-108.8 12.1,-108.8"
         style="fill:#233862;fill-opacity:1;fill-rule:nonzero;stroke:none"
         id="path248" /><path
         d="m 13713.9,6483.7 6.7,-33.4 c 0,0 164.8,0.6 203.4,-176 0,0 10.4,-73.5 -42.6,-57.8 -53,15.6 -44.7,53.2 -119.8,73.7 -75,20.6 -123.9,36.3 -135.3,90.9 l -12.3,60.8 99.9,41.8"
         style="fill:#ffb27d;fill-opacity:1;fill-rule:nonzero;stroke:none"
         id="path250" /><path
         d="m 13131,7929.5 c 0,0 43.6,-171.6 81.2,-328.5 15.1,-63.2 29.3,-124 39.3,-170.2 10.2,-47.5 15.9,-79.6 13.7,-83.2 -32.7,-53.1 27.1,-376.8 74.3,-494.3 4.2,-10.4 9.9,-22.7 16.8,-36.2 66.1,-129.6 242.1,-383.8 242.1,-383.8 0,0 49.6,-5.2 82.1,7 27,10.3 45.5,43.4 45.5,43.4 -15.7,25.3 -79.4,324.5 -161.3,492.2 -35,71.8 -86.6,737.5 -154.5,827.1 -56.6,74.8 -279.2,126.5 -279.2,126.5"
         style="fill:#f99746;fill-opacity:1;fill-rule:nonzero;stroke:none"
         id="path252" /><path
         d="m 13265.2,7347.6 c -32.7,-53.1 27.1,-376.8 74.3,-494.3 4.2,-10.4 9.9,-22.7 16.8,-36.2 63.2,279.4 -41.5,675.1 -41.5,675.1 -26.1,-10.3 -47,-31.9 -63.3,-61.4 10.2,-47.5 15.9,-79.6 13.7,-83.2"
         style="fill:#ed7d2b;fill-opacity:1;fill-rule:nonzero;stroke:none"
         id="path254" /><path
         d="m 12807.6,4117.2 c 0,0 -16.8,-252.8 31,-256.4 6.3,-0.4 242.2,-0.4 242.2,-0.4 h 304.1 c 0,0 -5.1,74.2 -93.1,89.6 -88,15.3 -235.3,77.1 -288.6,193.4 -56,122.4 -195.6,-26.2 -195.6,-26.2"
         style="fill:#0f2949;fill-opacity:1;fill-rule:nonzero;stroke:none"
         id="path256" /><path
         d="m 12350.1,4117.2 c 0,0 -16.8,-252.8 31,-256.4 6.3,-0.4 242.1,-0.4 242.1,-0.4 h 304.2 c 0,0 -5.1,74.2 -93.1,89.6 -88,15.3 -235.3,77.1 -288.6,193.4 -56,122.4 -195.6,-26.2 -195.6,-26.2"
         style="fill:#163560;fill-opacity:1;fill-rule:nonzero;stroke:none"
         id="path258" /><path
         d="m 12793.2,4726.6 c -7.5,-106.9 -22.7,-244.4 -17.3,-368.3 7.6,-173.3 13.1,-319.4 13.1,-319.4 114.3,-38.9 323.9,8.3 323.9,8.3 0,0 74.3,437.9 135.6,787.5 27.5,156.6 50.3,292.1 58.8,356.1 27.5,206.8 -29.3,1306.4 -29.3,1306.4 0,0 -309.2,198.2 -436.9,96 -127.7,-102.1 -206.3,-201.9 -0.5,-1320.9 15.6,-84.8 -30.6,-306.2 -47.4,-545.7"
         style="fill:#2b478b;fill-opacity:1;fill-rule:nonzero;stroke:none"
         id="path260" /><path
         d="m 12793.2,4726.6 c -7.5,-106.9 -21.2,-278 -15.8,-401.9 107.5,113.7 319.3,353.7 471.1,510 27.5,156.6 50.3,292.1 58.8,356.1 27.5,206.8 -29.3,1306.4 -29.3,1306.4 0,0 -309.2,198.2 -436.9,96 -127.7,-102.1 -206.3,-201.9 -0.5,-1320.9 15.6,-84.8 -30.6,-306.2 -47.4,-545.7"
         style="fill:#233862;fill-opacity:1;fill-rule:nonzero;stroke:none"
         id="path262" /><path
         d="m 12998.6,6474.9 c 0,0 -27.8,-1100.8 -71.2,-1304.9 -43.3,-204.1 -269.8,-1138.4 -269.8,-1138.4 0,0 -212.2,-19.3 -323.1,28.2 0,0 7.1,432.7 44.7,686.9 35.2,237.5 98.2,454.7 89.2,540.5 -119.2,1131.4 -33.2,1224.9 102,1316.9 135.2,92.1 428.2,-129.2 428.2,-129.2"
         style="fill:#2b478b;fill-opacity:1;fill-rule:nonzero;stroke:none"
         id="path264" /><path
         d="m 12579,6378.5 c 0,0 73.6,-147.6 -67.8,-260.3 0,0 -61.3,-41.9 -70.7,12.5 -9.4,54.5 1.5,35.5 -13.3,111.9 -14.8,76.4 4.1,155.4 48.1,189.8 l 103.7,-53.9"
         style="fill:#ffb27d;fill-opacity:1;fill-rule:nonzero;stroke:none"
         id="path266" /><path
         d="m 13198.9,8178.9 c 0,0 -84.9,-129 -68,-249.4 l -125.6,-302.6 -226.6,346.4 c 0,0 119.7,130.3 164.4,307.9 l 255.8,-102.3"
         style="fill:#ffb27d;fill-opacity:1;fill-rule:nonzero;stroke:none"
         id="path268" /><path
         d="m 13236.1,8068.8 c 0,0 -309.1,-13.4 -314.7,172.2 -5.6,185.5 -89.1,308.9 142,325.2 190.1,13.5 253.3,-65.8 270.3,-127.3 16.9,-61.5 17,-360.2 -97.6,-370.1"
         style="fill:#ffb27d;fill-opacity:1;fill-rule:nonzero;stroke:none"
         id="path270" /><path
         d="m 12479.4,6421.8 c 66.4,-6.1 157.9,-13.8 268.8,-20.8 22.2,-1.4 45.1,-2.7 68.7,-4.1 334.9,-18.7 468.1,35.5 468.1,35.5 0,0 8.8,7.2 6,46.5 -14.5,202.6 -57.5,262.4 -52.3,300.9 11.6,86.5 221.5,792.4 221.5,792.4 0,0 4,223 -244,327.7 -25.5,10.8 -53.7,20.3 -84.9,28.2 -10.9,-28.9 -40.6,-77.1 -116.8,-68.2 -112.6,13.1 -192.7,79.5 -227.1,113.6 -6.2,0 -8.7,-0.2 -8.7,-0.2 -8.4,-23.7 -14.9,-48.5 -20.8,-73.6 -20.3,-87.7 -32.2,-179.9 -86,-248.8 -53.1,-68.1 -98.5,-135.2 -137.3,-200.9 -32.2,-54.6 -59.9,-108.2 -83.6,-160.5 -219.5,-485.2 -49.7,-860.3 28.4,-867.7"
         style="fill:#f99746;fill-opacity:1;fill-rule:nonzero;stroke:none"
         id="path272" /><path
         d="m 12479.4,6421.8 c 66.4,-6.1 157.9,-13.8 268.8,-20.8 32.3,545.2 -189.8,1068.7 -189.8,1068.7 -8.3,-5.8 -16.3,-12.4 -23.8,-19.7 -38.7,-37.5 -65.6,-93.3 -83.6,-160.5 -66.1,-247.2 -10.8,-648.7 28.4,-867.7"
         style="fill:#ed7d2b;fill-opacity:1;fill-rule:nonzero;stroke:none"
         id="path274" /><path
         d="m 13335.7,8245.8 c 0,0 60.2,-238.7 -41.9,-272.4 -102.1,-33.6 -373.2,-6.6 -373.1,286 0,0 142.3,-84.8 210.2,-82.7 68,2.2 111.8,41.4 174.6,10.8 0,0 23,1.5 30.2,58.3"
         style="fill:#2b478b;fill-opacity:1;fill-rule:nonzero;stroke:none"
         id="path276" /><path
         d="m 12778.7,7973.3 c 0,0 -216,-4.9 -330.2,-153.4 -87.4,-113.8 -179.9,-724.5 -179.9,-816.4 0,-92 98.5,-599.4 153.6,-654.5 0,0 35.7,-9.2 83.3,0 50.6,9.7 80.3,39 80.3,39 0,0 -27.4,564.9 -27.4,617.9 0,76.7 239.9,546.3 239.9,546.3 0,0 124.4,223.6 -19.6,421.1"
         style="fill:#f99746;fill-opacity:1;fill-rule:nonzero;stroke:none"
         id="path278" /><path
         d="m 12935.9,8508.5 c 5.2,19 28.6,28.9 28.6,28.9 174.1,75.9 301.2,-7.1 301.2,-7.1 -106.7,143.2 -364.2,113.1 -418.4,-16 -88.6,-211 73.4,-254.9 73.4,-254.9 0,0 161.8,68 68.1,153.2 -31,28.2 -46,53.3 -51,75.2 -1.7,7.3 -2.2,14.2 -1.9,20.7"
         style="fill:#2b478b;fill-opacity:1;fill-rule:nonzero;stroke:none"
         id="path280" /><path
         d="m 6144.79,4448.4 -37.74,-158.7 -50.1,-210.6 h -156.53 l -9.31,201.7 -7.21,155.6 260.89,12"
         style="fill:#ffb27d;fill-opacity:1;fill-rule:nonzero;stroke:none"
         id="path282" /><path
         d="m 6640.81,7904.8 c 0,0 123.84,132.6 204.37,28.7 80.53,-104 169.78,-174.1 293.35,-254 123.57,-79.9 -109.2,-706.4 -263.99,-693.5 -154.79,12.8 -786.39,506.7 -233.73,918.8"
         style="fill:#ed7d2b;fill-opacity:1;fill-rule:nonzero;stroke:none"
         id="path284" /><path
         d="m 6024.1,7967.9 c 30.91,23.1 315.57,120.8 593.1,24.7 277.54,-96.1 -214.96,-363.9 -214.96,-363.9 l -159.62,-6.8 -218.52,346"
         style="fill:#a53232;fill-opacity:1;fill-rule:nonzero;stroke:none"
         id="path286" /><path
         d="m 6205.29,8148.9 c 0,0 -5.52,-170.7 -27.36,-247.1 l -172.86,-372.6 650.7,154.6 -155.18,214.4 c 0,0 -46.85,228.8 -22.28,313.5 24.57,84.6 -273.02,-62.8 -273.02,-62.8"
         style="fill:#ffb27d;fill-opacity:1;fill-rule:nonzero;stroke:none"
         id="path288" /><path
         d="m 6204.35,8125.3 c 0,0.1 51.45,-123.9 148.37,-121.1 96.92,2.7 118.98,112.3 118.98,112.3 l -267.35,8.8"
         style="fill:#ed985f;fill-opacity:1;fill-rule:nonzero;stroke:none"
         id="path290" /><path
         d="m 6146.49,8225.6 c 0,0 -31.3,156.2 -53.14,203.6 -21.84,47.3 -40.04,258.4 202.04,269.3 0,0 92.82,-10.9 143.78,20.1 0,0 0,-31 -12.73,-41.9 0,0 83.72,20 149.24,-52.8 65.53,-72.8 -43.67,-327.6 -38.21,-387.7 l -390.98,-10.6"
         style="fill:#2c3a64;fill-opacity:1;fill-rule:nonzero;stroke:none"
         id="path292" /><path
         d="m 6341.61,8052 c -70.23,1.3 -199.49,94.8 -199.49,210.6 v 180.7 c 0,42.3 29.49,76.9 65.53,76.9 h 267.93 c 36.04,0 65.52,-34.6 65.52,-76.9 v -170.5 c 0,-121.4 -118.95,-222.2 -199.49,-220.8"
         style="fill:#ffb27d;fill-opacity:1;fill-rule:nonzero;stroke:none"
         id="path294" /><path
         d="m 6142.12,8346.8 c 0,0 0.37,108.6 86.38,125.3 85.99,16.7 278.47,-52.9 305.78,26.2 27.3,79.2 -372.05,77.8 -392.16,27.3 -20.1,-50.5 0,-178.8 0,-178.8"
         style="fill:#2c3a64;fill-opacity:1;fill-rule:nonzero;stroke:none"
         id="path296" /><path
         d="m 6836.14,6503 -380.92,-23.8 c -2.18,3.6 -4.65,3.6 -7.37,-0.5 l -112.07,-7 -477.63,29.9 c 0,0 -120.12,-548.4 -72.93,-1279 15.05,-233.1 38.95,-544.4 43.84,-767.3 h 354.3 c 42.43,276.1 101.52,561.4 127.91,679.7 11.99,53.7 23.12,107 33.5,159.6 9.46,-60 15.53,-108.7 15.4,-139.1 -0.2,-48.5 13.96,-125.8 33.57,-218.9 27.55,-131.2 65.91,-293.8 90.06,-451.8 h 359.44 c 4.12,217.6 49.48,514.4 53.4,737.8 10.4,595.8 -60.5,1280.4 -60.5,1280.4"
         style="fill:#2b478b;fill-opacity:1;fill-rule:nonzero;stroke:none"
         id="path298" /><path
         d="m 5810.12,6220.5 c 0,0 136.44,-165.3 507.16,-141.4 370.72,23.8 547.59,88.4 547.59,88.4 l -1054.75,53"
         style="fill:#233862;fill-opacity:1;fill-rule:nonzero;stroke:none"
         id="path300" /><path
         d="m 6864.87,6167.5 c -121.11,-16.5 -944.93,-59.3 -1054.75,53 -109.83,112.4 179.28,1645.4 179.28,1645.4 0,0 32.75,9.4 87.99,19.8 28.17,5.4 62.15,10.9 100.61,15.5 0.47,-12 9.99,-192.7 160.03,-267.3 0,0 180.21,72.2 162.55,264.4 -0.2,2.2 -0.46,4.4 -0.77,6.5 24.05,-2.5 48.4,-5.9 72.86,-10.1 49.42,-8.5 99.47,-20.5 149.11,-36.9 0,0 264.19,-1673.9 143.09,-1690.3"
         style="fill:#bc3f3f;fill-opacity:1;fill-rule:nonzero;stroke:none"
         id="path302" /><path
         d="m 5817.06,6958.9 c -4.88,-6.4 27.96,-53.6 74.3,-114.2 95.32,-124.6 247.8,-305.9 247.8,-305.9 -2.04,-61.5 -10.63,-101.2 -10.63,-101.2 -209.45,99 -351.06,191.6 -444.94,265.9 -131.97,104.6 -169.82,173.2 -169.82,173.2 211.62,895.2 483.13,988.4 483.13,988.4 l 88.59,-539.5 c 0,0 -253.6,-347.3 -268.43,-366.7"
         style="fill:#bc3f3f;fill-opacity:1;fill-rule:nonzero;stroke:none"
         id="path304" /><path
         d="m 6572.67,7894.7 -54.58,-166 -72.75,-106.8 -104.43,-56.7 -98.29,56.7 -165.23,263.8 c 28.17,5.4 62.15,10.9 100.61,15.5 0.47,-12 9.99,-192.7 160.03,-267.3 0,0 180.21,72.2 162.55,264.4 -0.2,2.2 -0.46,4.4 -0.77,6.5 24.05,-2.5 48.4,-5.9 72.86,-10.1"
         style="fill:#ee9849;fill-opacity:1;fill-rule:nonzero;stroke:none"
         id="path306" /><path
         d="m 6139.18,6538.7 c -0.05,-1.7 -0.1,-3.4 -0.21,-5.1 -0.46,-11.3 -1.13,-21.9 -1.95,-31.6 -5.25,-7.2 -11.07,-14.1 -17.41,-20.5 -9.62,-9.7 -20.03,-17.9 -30.63,-24.8 -5.3,2.5 -10.61,5.2 -15.81,7.7 -179.39,88.9 -304.2,171.5 -389.57,239.1 54.17,16.7 130.07,54.8 207.77,141.2 95.3,-124.6 247.81,-306 247.81,-306"
         style="fill:#ffb27d;fill-opacity:1;fill-rule:nonzero;stroke:none"
         id="path308" /><path
         d="m 7179.35,6909.6 c 0,0 -36.53,-69.3 -166.48,-176.4 -92.44,-76.1 -232.25,-171.4 -439.77,-274.3 0,0 -9.35,39.5 -12.56,100.9 0,0 148.98,184.2 241.9,310.6 45.17,61.5 77.1,109.3 72.1,115.6 -11.8,14.8 -170.77,223.9 -241.7,317.1 -20.57,27.1 -33.7,44.4 -33.7,44.4 l 89.79,530.4 c 0,0 261.7,-77.3 490.42,-968.3"
         style="fill:#bc3f3f;fill-opacity:1;fill-rule:nonzero;stroke:none"
         id="path310" /><path
         d="m 7012.85,6733.2 c -84.34,-69.4 -208.12,-154.8 -386.74,-247.4 -4.43,-2.3 -8.91,-4.6 -13.43,-6.9 -22.82,27.5 -36.67,60.3 -45.11,89.6 2.99,3.7 6.85,8.6 11.58,14.4 42.79,53.4 150.3,188.3 223.26,287.5 79.29,-84.9 155.96,-121.5 210.44,-137.2"
         style="fill:#ffb27d;fill-opacity:1;fill-rule:nonzero;stroke:none"
         id="path312" /><path
         d="m 6499.81,7904.8 c -120.18,12.9 -232.93,7.1 -321.81,-3.6 l -0.05,0.6 c 0,0 297.87,184.2 321.86,3"
         style="fill:#ffb27d;fill-opacity:1;fill-rule:nonzero;stroke:none"
         id="path314" /><path
         d="m 6201.07,7383.8 h -6.11 l -4.5,287.1 h 15.44 l -4.83,-287.1"
         style="fill:#bbd4ff;fill-opacity:1;fill-rule:nonzero;stroke:none"
         id="path316" /><path
         d="m 6194.35,7391.3 c -5.57,-8.4 -18.09,-36.2 -9.78,-39.1 8.31,-2.9 22.89,-3.1 26.8,0.8 3.9,3.9 -6.51,54.1 -17.02,38.3"
         style="fill:#ee9849;fill-opacity:1;fill-rule:nonzero;stroke:none"
         id="path318" /><path
         d="m 6483.04,7383.8 h -6.11 l -4.51,287.1 h 15.45 l -4.83,-287.1"
         style="fill:#bbd4ff;fill-opacity:1;fill-rule:nonzero;stroke:none"
         id="path320" /><path
         d="m 6476.31,7391.3 c -5.57,-8.4 -18.08,-36.2 -9.78,-39.1 8.31,-2.9 22.89,-3.1 26.8,0.8 3.91,3.9 -6.51,54.1 -17.02,38.3"
         style="fill:#ee9849;fill-opacity:1;fill-rule:nonzero;stroke:none"
         id="path322" /><path
         d="m 6242.62,7621.9 -253.21,244 c 0,0 -57.01,40.4 33.09,100.9 90.11,60.5 220.12,-344.9 220.12,-344.9"
         style="fill:#a53232;fill-opacity:1;fill-rule:nonzero;stroke:none"
         id="path324" /><path
         d="m 6445.32,7621.9 253.21,244 c 0,0 57.01,40.4 -33.09,100.9 -90.11,60.5 -220.12,-344.9 -220.12,-344.9"
         style="fill:#a53232;fill-opacity:1;fill-rule:nonzero;stroke:none"
         id="path326" /><path
         d="m 6763.13,6455.5 c -49.33,-4.2 -90.47,8.2 -122.24,36.6 -5.35,4.7 -10.25,9.8 -14.78,15.2 -25.02,29.2 -39.08,66.1 -46.96,97.1 -9.06,35.5 -10.04,63.4 -10.04,64 l -0.2,7.1 h -408.98 l 0.26,-7.6 c 1.6,-44 -5.51,-81.7 -21.22,-112.8 -7.77,-15.5 -17.71,-29.4 -29.76,-41.5 -11.12,-11.2 -23.42,-20.3 -36.04,-27.6 -54.73,-31.7 -115.64,-30.5 -116.42,-30.5 l -7.56,0.3 V 6283 h 821.91 v 173.2 l -7.97,-0.7"
         style="fill:#a53232;fill-opacity:1;fill-rule:nonzero;stroke:none"
         id="path328" /><path
         d="m 6874.54,6986 c 0,0 -227.98,299.1 -47.52,386.2 71.64,34.6 172.49,-375.9 118.43,-414.5 -54.07,-38.7 -143.04,-87.3 -143.04,-87.3 l 72.13,115.6"
         style="fill:#a53232;fill-opacity:1;fill-rule:nonzero;stroke:none"
         id="path330" /><path
         d="m 5843.3,7056.8 c 0,0 79.21,375.6 9.71,336.9 -69.51,-38.6 -172.49,-375.9 -118.43,-414.5 54.06,-38.6 143.04,-87.3 143.04,-87.3 l -34.32,164.9"
         style="fill:#a53232;fill-opacity:1;fill-rule:nonzero;stroke:none"
         id="path332" /><path
         d="m 6842.57,6986.8 c -104.11,129.3 -142.99,339.1 -137.68,555.7 3.98,162.6 26.28,309.4 27.74,314.5 l 85.38,-66.5 c -0.34,-1.2 -49.01,-90.2 -52.78,-248.4 -3.44,-144.7 -10.29,-254.9 71.5,-506.8 l 5.84,-48.5"
         style="fill:#ed7d2b;fill-opacity:1;fill-rule:nonzero;stroke:none"
         id="path334" /><path
         d="m 6052.11,4375.4 -183.43,0.1 c -16.23,-1.8 -41.64,21.9 -41.64,55.9 0,0 -0.39,81.5 -5.77,96 -23.6,63.5 11.5,66.9 45.48,66.9 h 334.68 c 33.99,0 -18.07,-105 -18.07,-139 l 12.05,-44.6 c 0,-33.9 -109.32,-35.3 -143.3,-35.3"
         style="fill:#233862;fill-opacity:1;fill-rule:nonzero;stroke:none"
         id="path336" /><path
         d="m 6056.95,4079.1 v 0 l 50.1,210.5 c -114.1,-39.2 -192.62,-17.4 -215.94,-8.8 l 9.31,-201.7 v 0 c 0,0 -40.04,-103.8 -50.97,-129.3 -10.92,-25.4 -10.92,-102.1 -10.92,-102.1 h 249.36 c 0,0 1.82,74.8 0,105.8 -1.82,30.9 -30.93,125.5 -30.94,125.6"
         style="fill:#233862;fill-opacity:1;fill-rule:nonzero;stroke:none"
         id="path338" /><path
         d="m 6526.43,4448.4 37.74,-158.8 50.1,-210.5 h 156.53 l 9.32,201.7 7.2,155.6 -260.89,12"
         style="fill:#ffb27d;fill-opacity:1;fill-rule:nonzero;stroke:none"
         id="path340" /><path
         d="m 6619.11,4375.4 183.43,0.1 c 16.24,-1.8 41.65,21.9 41.65,55.9 0,0 0.38,81.5 5.77,96 23.59,63.5 -11.5,66.9 -45.49,66.9 h -334.68 c -33.98,0 18.08,-105 18.08,-139 l -12.05,-44.6 c 0,-33.9 109.31,-35.3 143.29,-35.3"
         style="fill:#233862;fill-opacity:1;fill-rule:nonzero;stroke:none"
         id="path342" /><path
         d="m 6821.47,3949.8 c -10.92,25.5 -50.94,129.2 -50.96,129.3 h 0.29 l 9.32,201.7 c -23.33,-8.6 -101.85,-30.4 -215.95,8.8 l 50.1,-210.5 h -0.3 c 0,0 -29.12,-94.7 -30.93,-125.6 -1.82,-31 0,-105.8 0,-105.8 h 249.35 c 0,0 0,76.7 -10.92,102.1"
         style="fill:#233862;fill-opacity:1;fill-rule:nonzero;stroke:none"
         id="path344" /><path
         d="m 3560.02,3847.3 h -230.35 l 91.18,5194.7 13.69,779.1 h 109.05 l 1.97,-700.9 14.46,-5272.9"
         style="fill:#e58638;fill-opacity:1;fill-rule:nonzero;stroke:none"
         id="path346" /><path
         d="m 3545.56,9120.2 c -36.52,-18.1 -79.89,-43.6 -124.71,-78.2 l 13.69,779.1 h 109.05 l 1.97,-700.9"
         style="fill:#cc6e2e;fill-opacity:1;fill-rule:nonzero;stroke:none"
         id="path348" /><path
         d="M 4057.21,9700.3 H 2832.49 c -38.5,0 -69.99,31.5 -69.99,70 v 1726.3 c 0,38.5 31.49,70 69.99,70 h 1224.72 c 38.49,0 69.98,-31.5 69.98,-70 V 9770.3 c 0,-38.5 -31.49,-70 -69.98,-70"
         style="fill:#f99746;fill-opacity:1;fill-rule:nonzero;stroke:none"
         id="path350" /><path
         d="M 3985.03,9787.5 H 2904.67 c -34.49,0 -62.71,28.3 -62.71,62.8 v 1570.3 c 0,34.5 28.22,62.7 62.71,62.7 h 1080.36 c 34.49,0 62.7,-28.2 62.7,-62.7 V 9850.3 c 0,-34.5 -28.21,-62.8 -62.7,-62.8"
         style="fill:#edf4ff;fill-opacity:1;fill-rule:nonzero;stroke:none"
         id="path352" /><path
         d="m 3140.5,10778.3 c -21.15,0 -38.3,17.2 -38.3,38.3 0,21.2 17.15,38.3 38.3,38.3 21.16,0 38.3,-17.1 38.3,-38.3 0,-21.1 -17.14,-38.3 -38.3,-38.3 z m 14.58,123.2 c -58.9,9.7 -109.1,-40.6 -99.44,-99.4 5.85,-35.7 34.62,-64.5 70.28,-70.3 58.9,-9.7 109.1,40.5 99.45,99.4 -5.86,35.7 -34.62,64.4 -70.29,70.3"
         style="fill:#ed7d2b;fill-opacity:1;fill-rule:nonzero;stroke:none"
         id="path354" /><path
         d="m 3724.13,10778.8 c -25.94,-4 -48.02,18.1 -43.94,44 2.53,16.1 15.76,29.3 31.9,31.7 25.86,3.9 47.73,-18.1 43.77,-43.9 -2.47,-16.1 -15.63,-29.3 -31.73,-31.8 z m 8.61,122.7 c -58.95,9.7 -109.26,-40.5 -99.58,-99.5 5.85,-35.6 34.63,-64.4 70.31,-70.2 58.87,-9.7 108.98,40.4 99.42,99.3 -5.8,35.7 -34.51,64.5 -70.15,70.4"
         style="fill:#ed7d2b;fill-opacity:1;fill-rule:nonzero;stroke:none"
         id="path356" /><path
         d="m 3826.98,11058.7 c 0,-12.8 -10.34,-23.1 -23.11,-23.1 h -133.43 c -12.77,0 -23.12,10.3 -23.12,23.1 v 84 c 0,12.7 10.35,23.1 23.12,23.1 h 133.43 c 12.77,0 23.11,-10.4 23.11,-23.1 z m -222.29,0 c 0,-12.8 -10.35,-23.1 -23.11,-23.1 h -133.47 c -12.77,0 -23.11,10.3 -23.11,23.1 v 84 c 0,12.7 10.34,23.1 23.11,23.1 h 133.47 c 12.76,0 23.11,-10.4 23.11,-23.1 z m -220.91,0 c 0,-12.8 -10.35,-23.1 -23.12,-23.1 h -133.43 c -12.77,0 -23.11,10.3 -23.11,23.1 v 84 c 0,12.7 10.34,23.1 23.11,23.1 h 133.43 c 12.77,0 23.12,-10.4 23.12,-23.1 z m -220.53,0 c 0,-12.8 -10.34,-23.1 -23.11,-23.1 h -97.05 c -15.04,0 -24.47,16.2 -17.03,29.3 l 43.52,76.3 c 8.69,15.2 24.82,24.6 42.32,24.6 h 28.21 c 12.78,0 23.14,-10.4 23.14,-23.2 z m 673.57,135.6 H 3091.2 c -18.18,0 -35.15,-9.1 -45.19,-24.3 l -80.07,-120.7 c -7.11,-10.7 -10.91,-23.3 -10.91,-36.1 v -151.9 c 0,-24.7 20.02,-44.7 44.72,-44.7 16.85,0 31.08,11.7 35.4,28 12.34,46.6 54.84,81 105.35,81 49.32,0 90.97,-32.7 104.41,-77.7 5.58,-18.6 22.94,-31.3 42.42,-31.3 h 289.91 c 16.86,0 31.11,11.7 35.43,28 12.35,46.6 54.84,81 105.34,81 49.72,0 91.64,-33.3 104.73,-78.8 5.2,-18 22.17,-30.2 40.98,-30.2 h 32.05 c 21.48,0 38.89,17.4 38.89,38.9 v 167.1 c 0,7.9 -1.4,15.7 -4.14,23.1 l -41.59,112.3 c -8.07,21.8 -28.87,36.3 -52.11,36.3"
         style="fill:#ed7d2b;fill-opacity:1;fill-rule:nonzero;stroke:none"
         id="path358" /><path
         d="m 3273.53,10376.7 c 18.06,0 28.95,6.4 28.95,20.7 0,12.5 -9.3,20.2 -30.28,20.2 h -47.28 v -40.9 z m -10.89,74.9 c 18.06,0 29.48,5.8 29.48,20.2 0,12.2 -9.56,19.1 -26.83,19.1 h -40.37 v -39.3 z m -77.57,75.2 h 86.33 c 21.25,0 37.98,-5.9 48.61,-16.5 8.5,-8.5 12.75,-18.9 12.75,-32.1 0,-21 -11.16,-32.7 -24.44,-40.2 21.52,-8.2 34.8,-20.7 34.8,-46.2 0,-34 -27.62,-51 -69.59,-51 h -88.46 v 186"
         style="fill:#ed7d2b;fill-opacity:1;fill-rule:nonzero;stroke:none"
         id="path360" /><path
         d="m 3373.92,10420.5 v 106.3 h 40.91 v -105.2 c 0,-30.3 15.14,-46 40.11,-46 24.97,0 40.1,15.2 40.1,44.6 v 106.6 h 40.91 v -105 c 0,-56.3 -31.6,-83.9 -81.54,-83.9 -49.94,0 -80.49,27.9 -80.49,82.6"
         style="fill:#ed7d2b;fill-opacity:1;fill-rule:nonzero;stroke:none"
         id="path362" /><path
         d="m 3564.9,10367.9 24.18,29 c 16.73,-13.8 34.26,-22.6 55.51,-22.6 16.73,0 26.83,6.6 26.83,18.1 0,10.3 -6.38,15.6 -37.46,23.6 -37.45,9.6 -61.62,19.9 -61.62,57.4 0,33.7 27.09,56 65.08,56 27.09,0 50.2,-8.5 69.06,-23.6 l -21.25,-30.8 c -16.47,11.4 -32.67,18.3 -48.35,18.3 -15.66,0 -23.9,-7.2 -23.9,-16.7 0,-12.3 7.97,-16.2 40.11,-24.5 37.72,-9.8 58.97,-23.4 58.97,-56.3 0,-36.9 -28.16,-57.6 -68.27,-57.6 -28.16,0 -56.57,9.8 -78.89,29.7"
         style="fill:#ed7d2b;fill-opacity:1;fill-rule:nonzero;stroke:none"
         id="path364" /><path
         d="m 3086.92,10049.2 24.18,28.9 c 16.73,-13.8 34.27,-22.5 55.51,-22.5 16.74,0 26.83,6.6 26.83,18 0,10.4 -6.37,15.7 -37.45,23.7 -37.45,9.5 -61.62,19.9 -61.62,57.3 0,33.8 27.09,56.1 65.07,56.1 27.09,0 50.2,-8.5 69.06,-23.7 l -21.25,-30.8 c -16.46,11.4 -32.67,18.4 -48.34,18.4 -15.67,0 -23.91,-7.2 -23.91,-16.8 0,-12.2 7.97,-16.2 40.11,-24.4 37.72,-9.9 58.97,-23.4 58.97,-56.3 0,-37 -28.16,-57.7 -68.26,-57.7 -28.16,0 -56.58,9.9 -78.9,29.8"
         style="fill:#ed7d2b;fill-opacity:1;fill-rule:nonzero;stroke:none"
         id="path366" /><path
         d="m 3308.99,10170.3 h -56.58 v 37.7 h 154.05 v -37.7 h -56.57 v -148.2 h -40.9 v 148.2"
         style="fill:#ed7d2b;fill-opacity:1;fill-rule:nonzero;stroke:none"
         id="path368" /><path
         d="m 3576.46,10115 c 0,31.9 -23.37,58.5 -56.31,58.5 -32.93,0 -55.78,-26.1 -55.78,-58.5 0,-31.8 23.37,-58.4 56.31,-58.4 32.94,0 55.78,26 55.78,58.4 z m -154.85,0 c 0,52.9 41.7,96.2 99.07,96.2 57.38,0 98.55,-42.8 98.55,-96.2 0,-52.8 -41.71,-96.1 -99.08,-96.1 -57.37,0 -98.54,42.8 -98.54,96.1"
         style="fill:#ed7d2b;fill-opacity:1;fill-rule:nonzero;stroke:none"
         id="path370" /><path
         d="m 3728.93,10114.3 c 20.45,0 32.4,12.2 32.4,28.6 0,18.4 -12.75,28.2 -33.2,28.2 h -31.61 v -56.8 z m -73.31,93.7 h 75.96 c 44.36,0 71.19,-26.3 71.19,-64.8 0,-43 -33.47,-65.3 -75.17,-65.3 h -31.08 v -55.8 h -40.9 v 185.9"
         style="fill:#ed7d2b;fill-opacity:1;fill-rule:nonzero;stroke:none"
         id="path372" /><path
         d="m 3671.51,3860.3 h -453.33 l 32.44,628 c 1.81,35 30.74,62.5 65.82,62.5 h 252.75 c 37.35,0 68.16,-29.3 70.09,-66.6 l 32.23,-623.9"
         style="fill:#e58638;fill-opacity:1;fill-rule:nonzero;stroke:none"
         id="path374" /><path
         d="m 3427.27,3860.3 h -209.09 l 32.71,633.1 c 1.66,32.2 28.2,57.4 60.38,57.4 h 65.19 c 53.17,0 95.22,-45.1 91.57,-98.1 l -40.76,-592.4"
         style="fill:#cc6e2e;fill-opacity:1;fill-rule:nonzero;stroke:none"
         id="path376" /><path
         d="m 5331.25,10364.2 -3.33,-208.5 -99.36,-6268.1 c -0.23,-15.1 -12.54,-27.2 -27.64,-27.2 h -7.39 c -29.78,0 -54.11,23.7 -54.79,53.5 l -137.65,6050.5 -9.07,399.8 h 339.23"
         style="fill:#e58638;fill-opacity:1;fill-rule:nonzero;stroke:none"
         id="path378" /><path
         d="m 5331.25,10364.2 -3.33,-208.5 c -90.76,-28.4 -220.68,-84.5 -326.83,-191.3 l -9.07,399.8 h 339.23"
         style="fill:#cc621b;fill-opacity:1;fill-rule:nonzero;stroke:none"
         id="path380" /><path
         d="m 14662.1,10364.2 -3.4,-208.5 -99.3,-6268.1 c -0.3,-15.1 -12.6,-27.2 -27.7,-27.2 h -7.4 c -29.7,0 -54.1,23.7 -54.8,53.5 l -137.6,6050.5 -9.1,399.8 h 339.3"
         style="fill:#e58638;fill-opacity:1;fill-rule:nonzero;stroke:none"
         id="path382" /><path
         d="m 14662.1,10364.2 -3.4,-208.5 c -90.7,-28.4 -220.7,-84.5 -326.8,-191.3 l -9.1,399.8 h 339.3"
         style="fill:#cc621b;fill-opacity:1;fill-rule:nonzero;stroke:none"
         id="path384" /><path
         d="m 15112,11147.6 v -738.5 c 0,-14.1 -3.9,-27.3 -10.7,-38.8 -14.9,-25 -43.6,-42 -76.6,-42 H 4692.36 c -47.99,0 -87.2,36.4 -87.2,80.8 v 738.5 c 0,44.4 39.21,80.7 87.2,80.7 H 15024.7 c 48.1,0 87.3,-36.3 87.3,-80.7"
         style="fill:#ed7d2b;fill-opacity:1;fill-rule:nonzero;stroke:none"
         id="path386" /><path
         d="m 15112,11147.6 v -738.5 c 0,-14.1 -3.9,-27.3 -10.7,-38.8 -31.1,-14.3 -62.7,-28.3 -94.9,-42 h -4362.8 c -1069.38,260.5 -2134.29,613.3 -2915.94,900 h 7297.04 c 48.1,0 87.3,-36.3 87.3,-80.7"
         style="fill:#f99746;fill-opacity:1;fill-rule:nonzero;stroke:none"
         id="path388" /><path
         d="m 4934.97,4289.7 c 0,0 -290.81,444.1 -470.43,359 -179.62,-85.1 470.43,-359 470.43,-359"
         style="fill:#b8e0af;fill-opacity:1;fill-rule:nonzero;stroke:none"
         id="path390" /><path
         d="m 5016.23,4375.4 c 0,0 -17.11,320.8 -111.2,307.9 -94.08,-12.8 111.2,-307.9 111.2,-307.9"
         style="fill:#b8e0af;fill-opacity:1;fill-rule:nonzero;stroke:none"
         id="path392" /><path
         d="M 31016.1,3808.4 H 1169.7 c -18.64,0 -33.89,15.3 -33.89,33.9 v 11.6 c 0,18.6 15.25,33.9 33.89,33.9 h 29846.4 c 18.6,0 33.9,-15.3 33.9,-33.9 v -11.6 c 0,-18.6 -15.3,-33.9 -33.9,-33.9"
         style="fill:#2e3552;fill-opacity:1;fill-rule:nonzero;stroke:none"
         id="path394" /></g></g></svg>
