<?xml version="1.0" encoding="UTF-8" standalone="no"?>
<!DOCTYPE svg PUBLIC "-//W3C//DTD SVG 1.1//EN" "http://www.w3.org/Graphics/SVG/1.1/DTD/svg11.dtd">
<svg width="100%" height="100%" viewBox="0 0 856 1228" version="1.1" xmlns="http://www.w3.org/2000/svg" xmlns:xlink="http://www.w3.org/1999/xlink" xml:space="preserve" xmlns:serif="http://www.serif.com/" style="fill-rule:evenodd;clip-rule:evenodd;stroke-linejoin:round;stroke-miterlimit:2;">
    <rect id="Artboard1" x="0" y="0" width="855.7" height="1227.2" style="fill:none;"/>
    <g id="Artboard11" serif:id="Artboard1">
        <g>
            <g id="path835" transform="matrix(1,0,0,1,-1178.5,52.8)">
                <path d="M1414.2,856.6C1452.1,904 1490.7,963.4 1510.9,999.4C1535.5,1046.2 1545.7,1077.8 1564,1134C1574.7,1165 1584.9,1174.4 1606.3,1174.4C1629.7,1174.4 1640.4,1158.6 1648.6,1134C1665.7,1080.9 1678.9,1040.5 1699.8,1001.9C1740.9,928 1792.7,862.2 1843.3,799C1857.2,781.3 1945.7,677 1985.5,594.2C1985.5,594.2 2034.2,503.8 2034.2,377.4C2034.2,259.2 1986.2,177.1 1986.2,177.1L1732.1,480.5L1414.2,856.6Z" style="fill:rgb(52,168,83);fill-rule:nonzero;"/>
            </g>
            <g id="path833" transform="matrix(1,0,0,1,-1178.5,52.8)">
                <path d="M1220.2,579.1C1266.3,684 1354.2,775.7 1414.2,856.6L1732.1,480.5C1732.1,480.5 1687.2,538.7 1606.3,538.7C1515.9,538.7 1442.6,466.7 1442.6,375.6C1442.6,313 1479.9,270.1 1479.9,270.1L1220.2,579.1Z" style="fill:rgb(251,188,4);fill-rule:nonzero;"/>
            </g>
            <g id="path831" transform="matrix(1,0,0,1,-1178.5,52.8)">
                <path d="M1735.2,-33.2C1840.7,0.9 1931.8,71.5 1986.2,177.1L1732.1,480.5C1732.1,480.5 1769.4,436.9 1769.4,375C1769.4,282.1 1691,211.9 1606.3,211.9C1526,211.9 1479.9,270.1 1479.9,270.1L1735.2,-33.2Z" style="fill:rgb(66,133,244);fill-rule:nonzero;"/>
            </g>
            <g id="path829" transform="matrix(1,0,0,1,-1178.5,52.8)">
                <path d="M1278.3,100.1C1341.5,24.9 1452.1,-52.8 1605,-52.8C1678.9,-52.8 1735.2,-33.2 1735.2,-33.2L1479.9,270.1L1278.3,100.1Z" style="fill:rgb(26,115,232);fill-rule:nonzero;"/>
            </g>
            <g id="path827" transform="matrix(1,0,0,1,-1178.5,52.8)">
                <path d="M1220.2,579.1C1220.2,579.1 1178.5,496.3 1178.5,376.9C1178.5,263.8 1222,164.6 1278.3,100.1L1479.9,270.1L1220.2,579.1Z" style="fill:rgb(234,67,53);fill-rule:nonzero;"/>
            </g>
        </g>
    </g>
</svg>
